<svg width="1917" height="1000" viewBox="0 0 1917 1000" fill="none" xmlns="http://www.w3.org/2000/svg">
<g clip-path="url(#clip0_2046_681)">
<g clip-path="url(#clip1_2046_681)">
<path d="M85.051 214.895H-40.4746V340.42H85.051V214.895Z" stroke="white" stroke-opacity="0.05" stroke-width="0.5"/>
<path d="M584.63 214.895H459.104V340.42H584.63V214.895Z" stroke="white" stroke-opacity="0.05" stroke-width="0.5"/>
<path d="M1084.21 214.895H958.685V340.42H1084.21V214.895Z" stroke="white" stroke-opacity="0.05" stroke-width="0.5"/>
<path d="M1583.79 214.895H1458.26V340.42H1583.79V214.895Z" stroke="white" stroke-opacity="0.05" stroke-width="0.5"/>
<path d="M334.841 214.895H209.315V340.42H334.841V214.895Z" stroke="white" stroke-opacity="0.05" stroke-width="0.5"/>
<path d="M834.419 214.895H708.895V340.42H834.419V214.895Z" stroke="white" stroke-opacity="0.05" stroke-width="0.5"/>
<path d="M1334 214.895H1208.47V340.42H1334V214.895Z" stroke="white" stroke-opacity="0.05" stroke-width="0.5"/>
<path d="M1833.58 214.895H1708.05V340.42H1833.58V214.895Z" stroke="white" stroke-opacity="0.05" stroke-width="0.5"/>
<path d="M209.946 214.895H84.4199V340.42H209.946V214.895Z" stroke="white" stroke-opacity="0.05" stroke-width="0.5"/>
<path d="M709.526 214.895H584V340.42H709.526V214.895Z" stroke="white" stroke-opacity="0.05" stroke-width="0.5"/>
<path d="M1209.1 214.895H1083.58V340.42H1209.1V214.895Z" stroke="white" stroke-opacity="0.05" stroke-width="0.5"/>
<path d="M1708.68 214.895H1583.16V340.42H1708.68V214.895Z" stroke="white" stroke-opacity="0.05" stroke-width="0.5"/>
<path d="M459.736 214.895H334.21V340.42H459.736V214.895Z" stroke="white" stroke-opacity="0.05" stroke-width="0.5"/>
<path d="M959.315 214.895H833.789V340.42H959.315V214.895Z" stroke="white" stroke-opacity="0.05" stroke-width="0.5"/>
<path d="M1458.89 214.895H1333.37V340.42H1458.89V214.895Z" stroke="white" stroke-opacity="0.05" stroke-width="0.5"/>
<path d="M1958.47 214.895H1832.95V340.42H1958.47V214.895Z" stroke="white" stroke-opacity="0.05" stroke-width="0.5"/>
<path d="M85.051 714.474H-40.4746V840H85.051V714.474Z" stroke="white" stroke-opacity="0.05" stroke-width="0.5"/>
<path d="M584.63 714.474H459.104V840H584.63V714.474Z" stroke="white" stroke-opacity="0.05" stroke-width="0.5"/>
<path d="M1084.21 714.474H958.685V840H1084.21V714.474Z" stroke="white" stroke-opacity="0.05" stroke-width="0.5"/>
<path d="M1583.79 714.474H1458.26V840H1583.79V714.474Z" stroke="white" stroke-opacity="0.05" stroke-width="0.5"/>
<path d="M334.841 714.474H209.315V840H334.841V714.474Z" stroke="white" stroke-opacity="0.05" stroke-width="0.5"/>
<path d="M834.419 714.474H708.895V840H834.419V714.474Z" stroke="white" stroke-opacity="0.05" stroke-width="0.5"/>
<path d="M1334 714.474H1208.47V840H1334V714.474Z" stroke="white" stroke-opacity="0.05" stroke-width="0.5"/>
<path d="M1833.58 714.474H1708.05V840H1833.58V714.474Z" stroke="white" stroke-opacity="0.05" stroke-width="0.5"/>
<path d="M209.946 714.474H84.4199V840H209.946V714.474Z" stroke="white" stroke-opacity="0.05" stroke-width="0.5"/>
<path d="M709.526 714.474H584V840H709.526V714.474Z" stroke="white" stroke-opacity="0.05" stroke-width="0.5"/>
<path d="M1209.1 714.474H1083.58V840H1209.1V714.474Z" stroke="white" stroke-opacity="0.05" stroke-width="0.5"/>
<path d="M1708.68 714.474H1583.16V840H1708.68V714.474Z" stroke="white" stroke-opacity="0.05" stroke-width="0.5"/>
<path d="M459.736 714.474H334.21V840H459.736V714.474Z" stroke="white" stroke-opacity="0.05" stroke-width="0.5"/>
<path d="M959.315 714.474H833.789V840H959.315V714.474Z" stroke="white" stroke-opacity="0.05" stroke-width="0.5"/>
<path d="M1458.89 714.474H1333.37V840H1458.89V714.474Z" stroke="white" stroke-opacity="0.05" stroke-width="0.5"/>
<path d="M1958.47 714.474H1832.95V840H1958.47V714.474Z" stroke="white" stroke-opacity="0.05" stroke-width="0.5"/>
<path d="M85.051 -34.895H-40.4746V90.631H85.051V-34.895Z" stroke="white" stroke-opacity="0.05" stroke-width="0.5"/>
<path d="M584.63 -34.895H459.104V90.631H584.63V-34.895Z" stroke="white" stroke-opacity="0.05" stroke-width="0.5"/>
<path d="M1084.21 -34.895H958.685V90.631H1084.21V-34.895Z" stroke="white" stroke-opacity="0.05" stroke-width="0.5"/>
<path d="M1583.79 -34.895H1458.26V90.631H1583.79V-34.895Z" stroke="white" stroke-opacity="0.05" stroke-width="0.5"/>
<path d="M334.841 -34.895H209.315V90.631H334.841V-34.895Z" stroke="white" stroke-opacity="0.05" stroke-width="0.5"/>
<path d="M834.419 -34.895H708.895V90.631H834.419V-34.895Z" stroke="white" stroke-opacity="0.05" stroke-width="0.5"/>
<path d="M1334 -34.895H1208.47V90.631H1334V-34.895Z" stroke="white" stroke-opacity="0.05" stroke-width="0.5"/>
<path d="M1833.58 -34.895H1708.05V90.631H1833.58V-34.895Z" stroke="white" stroke-opacity="0.05" stroke-width="0.5"/>
<path d="M209.946 -34.895H84.4199V90.631H209.946V-34.895Z" stroke="white" stroke-opacity="0.05" stroke-width="0.5"/>
<path d="M709.526 -34.895H584V90.631H709.526V-34.895Z" stroke="white" stroke-opacity="0.05" stroke-width="0.5"/>
<path d="M1209.1 -34.895H1083.58V90.631H1209.1V-34.895Z" stroke="white" stroke-opacity="0.05" stroke-width="0.5"/>
<path d="M1708.68 -34.895H1583.16V90.631H1708.68V-34.895Z" stroke="white" stroke-opacity="0.05" stroke-width="0.5"/>
<path d="M459.736 -34.895H334.21V90.631H459.736V-34.895Z" stroke="white" stroke-opacity="0.05" stroke-width="0.5"/>
<path d="M959.315 -34.895H833.789V90.631H959.315V-34.895Z" stroke="white" stroke-opacity="0.05" stroke-width="0.5"/>
<path d="M1458.89 -34.895H1333.37V90.631H1458.89V-34.895Z" stroke="white" stroke-opacity="0.05" stroke-width="0.5"/>
<path d="M1958.47 -34.895H1832.95V90.631H1958.47V-34.895Z" stroke="white" stroke-opacity="0.05" stroke-width="0.5"/>
<path d="M85.051 464.685H-40.4746V590.21H85.051V464.685Z" stroke="white" stroke-opacity="0.05" stroke-width="0.5"/>
<path d="M584.63 464.685H459.104V590.21H584.63V464.685Z" stroke="white" stroke-opacity="0.05" stroke-width="0.5"/>
<path d="M1084.21 464.685H958.685V590.21H1084.21V464.685Z" stroke="white" stroke-opacity="0.05" stroke-width="0.5"/>
<path d="M1583.79 464.685H1458.26V590.21H1583.79V464.685Z" stroke="white" stroke-opacity="0.05" stroke-width="0.5"/>
<path d="M334.841 464.685H209.315V590.21H334.841V464.685Z" stroke="white" stroke-opacity="0.05" stroke-width="0.5"/>
<path d="M834.419 464.685H708.895V590.21H834.419V464.685Z" stroke="white" stroke-opacity="0.05" stroke-width="0.5"/>
<path d="M1334 464.685H1208.47V590.21H1334V464.685Z" stroke="white" stroke-opacity="0.05" stroke-width="0.5"/>
<path d="M1833.58 464.685H1708.05V590.21H1833.58V464.685Z" stroke="white" stroke-opacity="0.05" stroke-width="0.5"/>
<path d="M209.946 464.685H84.4199V590.21H209.946V464.685Z" stroke="white" stroke-opacity="0.05" stroke-width="0.5"/>
<path d="M709.526 464.685H584V590.21H709.526V464.685Z" stroke="white" stroke-opacity="0.05" stroke-width="0.5"/>
<path d="M1209.1 464.685H1083.58V590.21H1209.1V464.685Z" stroke="white" stroke-opacity="0.05" stroke-width="0.5"/>
<path d="M1708.68 464.685H1583.16V590.21H1708.68V464.685Z" stroke="white" stroke-opacity="0.05" stroke-width="0.5"/>
<path d="M459.736 464.685H334.21V590.21H459.736V464.685Z" stroke="white" stroke-opacity="0.05" stroke-width="0.5"/>
<path d="M959.315 464.685H833.789V590.21H959.315V464.685Z" stroke="white" stroke-opacity="0.05" stroke-width="0.5"/>
<path d="M1458.89 464.685H1333.37V590.21H1458.89V464.685Z" stroke="white" stroke-opacity="0.05" stroke-width="0.5"/>
<path d="M1958.47 464.685H1832.95V590.21H1958.47V464.685Z" stroke="white" stroke-opacity="0.05" stroke-width="0.5"/>
<path d="M85.051 964.26H-40.4746V1089.79H85.051V964.26Z" stroke="white" stroke-opacity="0.05" stroke-width="0.5"/>
<path d="M584.63 964.26H459.104V1089.79H584.63V964.26Z" stroke="white" stroke-opacity="0.05" stroke-width="0.5"/>
<path d="M1084.21 964.26H958.685V1089.79H1084.21V964.26Z" stroke="white" stroke-opacity="0.05" stroke-width="0.5"/>
<path d="M1583.79 964.26H1458.26V1089.79H1583.79V964.26Z" stroke="white" stroke-opacity="0.05" stroke-width="0.5"/>
<path d="M334.841 964.26H209.315V1089.79H334.841V964.26Z" stroke="white" stroke-opacity="0.05" stroke-width="0.5"/>
<path d="M834.419 964.26H708.895V1089.79H834.419V964.26Z" stroke="white" stroke-opacity="0.05" stroke-width="0.5"/>
<path d="M1334 964.26H1208.47V1089.79H1334V964.26Z" stroke="white" stroke-opacity="0.05" stroke-width="0.5"/>
<path d="M1833.58 964.26H1708.05V1089.79H1833.58V964.26Z" stroke="white" stroke-opacity="0.05" stroke-width="0.5"/>
<path d="M209.946 964.26H84.4199V1089.79H209.946V964.26Z" stroke="white" stroke-opacity="0.05" stroke-width="0.5"/>
<path d="M709.526 964.26H584V1089.79H709.526V964.26Z" stroke="white" stroke-opacity="0.05" stroke-width="0.5"/>
<path d="M1209.1 964.26H1083.58V1089.79H1209.1V964.26Z" stroke="white" stroke-opacity="0.05" stroke-width="0.5"/>
<path d="M1708.68 964.26H1583.16V1089.79H1708.68V964.26Z" stroke="white" stroke-opacity="0.05" stroke-width="0.5"/>
<path d="M459.736 964.26H334.21V1089.79H459.736V964.26Z" stroke="white" stroke-opacity="0.05" stroke-width="0.5"/>
<path d="M959.315 964.26H833.789V1089.79H959.315V964.26Z" stroke="white" stroke-opacity="0.05" stroke-width="0.5"/>
<path d="M1458.89 964.26H1333.37V1089.79H1458.89V964.26Z" stroke="white" stroke-opacity="0.05" stroke-width="0.5"/>
<path d="M1958.47 964.26H1832.95V1089.79H1958.47V964.26Z" stroke="white" stroke-opacity="0.05" stroke-width="0.5"/>
<path d="M85.051 339.79H-40.4746V465.315H85.051V339.79Z" stroke="white" stroke-opacity="0.05" stroke-width="0.5"/>
<path d="M584.63 339.79H459.104V465.315H584.63V339.79Z" stroke="white" stroke-opacity="0.05" stroke-width="0.5"/>
<path d="M1084.21 339.79H958.685V465.315H1084.21V339.79Z" stroke="white" stroke-opacity="0.05" stroke-width="0.5"/>
<path d="M1583.79 339.79H1458.26V465.315H1583.79V339.79Z" stroke="white" stroke-opacity="0.05" stroke-width="0.5"/>
<path d="M334.841 339.79H209.315V465.315H334.841V339.79Z" stroke="white" stroke-opacity="0.05" stroke-width="0.5"/>
<path d="M834.419 339.79H708.895V465.315H834.419V339.79Z" stroke="white" stroke-opacity="0.05" stroke-width="0.5"/>
<path d="M1334 339.79H1208.47V465.315H1334V339.79Z" stroke="white" stroke-opacity="0.05" stroke-width="0.5"/>
<path d="M1833.58 339.79H1708.05V465.315H1833.58V339.79Z" stroke="white" stroke-opacity="0.05" stroke-width="0.5"/>
<path d="M209.946 339.79H84.4199V465.315H209.946V339.79Z" stroke="white" stroke-opacity="0.05" stroke-width="0.5"/>
<path d="M709.526 339.79H584V465.315H709.526V339.79Z" stroke="white" stroke-opacity="0.05" stroke-width="0.5"/>
<path d="M1209.1 339.79H1083.58V465.315H1209.1V339.79Z" stroke="white" stroke-opacity="0.05" stroke-width="0.5"/>
<path d="M1708.68 339.79H1583.16V465.315H1708.68V339.79Z" stroke="white" stroke-opacity="0.05" stroke-width="0.5"/>
<path d="M459.736 339.79H334.21V465.315H459.736V339.79Z" stroke="white" stroke-opacity="0.05" stroke-width="0.5"/>
<path d="M959.315 339.79H833.789V465.315H959.315V339.79Z" stroke="white" stroke-opacity="0.05" stroke-width="0.5"/>
<path d="M1458.89 339.79H1333.37V465.315H1458.89V339.79Z" stroke="white" stroke-opacity="0.05" stroke-width="0.5"/>
<path d="M1958.47 339.79H1832.95V465.315H1958.47V339.79Z" stroke="white" stroke-opacity="0.05" stroke-width="0.5"/>
<path d="M85.051 839.37H-40.4746V964.89H85.051V839.37Z" stroke="white" stroke-opacity="0.05" stroke-width="0.5"/>
<path d="M584.63 839.37H459.104V964.89H584.63V839.37Z" stroke="white" stroke-opacity="0.05" stroke-width="0.5"/>
<path d="M1084.21 839.37H958.685V964.89H1084.21V839.37Z" stroke="white" stroke-opacity="0.05" stroke-width="0.5"/>
<path d="M1583.79 839.37H1458.26V964.89H1583.79V839.37Z" stroke="white" stroke-opacity="0.05" stroke-width="0.5"/>
<path d="M334.841 839.37H209.315V964.89H334.841V839.37Z" stroke="white" stroke-opacity="0.05" stroke-width="0.5"/>
<path d="M834.419 839.37H708.895V964.89H834.419V839.37Z" stroke="white" stroke-opacity="0.05" stroke-width="0.5"/>
<path d="M1334 839.37H1208.47V964.89H1334V839.37Z" stroke="white" stroke-opacity="0.05" stroke-width="0.5"/>
<path d="M1833.58 839.37H1708.05V964.89H1833.58V839.37Z" stroke="white" stroke-opacity="0.05" stroke-width="0.5"/>
<path d="M209.946 839.37H84.4199V964.89H209.946V839.37Z" stroke="white" stroke-opacity="0.05" stroke-width="0.5"/>
<path d="M709.526 839.37H584V964.89H709.526V839.37Z" stroke="white" stroke-opacity="0.05" stroke-width="0.5"/>
<path d="M1209.1 839.37H1083.58V964.89H1209.1V839.37Z" stroke="white" stroke-opacity="0.05" stroke-width="0.5"/>
<path d="M1708.68 839.37H1583.16V964.89H1708.68V839.37Z" stroke="white" stroke-opacity="0.05" stroke-width="0.5"/>
<path d="M459.736 839.37H334.21V964.89H459.736V839.37Z" stroke="white" stroke-opacity="0.05" stroke-width="0.5"/>
<path d="M959.315 839.37H833.789V964.89H959.315V839.37Z" stroke="white" stroke-opacity="0.05" stroke-width="0.5"/>
<path d="M1458.89 839.37H1333.37V964.89H1458.89V839.37Z" stroke="white" stroke-opacity="0.05" stroke-width="0.5"/>
<path d="M1958.47 839.37H1832.95V964.89H1958.47V839.37Z" stroke="white" stroke-opacity="0.05" stroke-width="0.5"/>
<path d="M85.051 90H-40.4746V215.526H85.051V90Z" stroke="white" stroke-opacity="0.05" stroke-width="0.5"/>
<path d="M584.63 90H459.104V215.526H584.63V90Z" stroke="white" stroke-opacity="0.05" stroke-width="0.5"/>
<path d="M1084.21 90H958.685V215.526H1084.21V90Z" stroke="white" stroke-opacity="0.05" stroke-width="0.5"/>
<path d="M1583.79 90H1458.26V215.526H1583.79V90Z" stroke="white" stroke-opacity="0.05" stroke-width="0.5"/>
<path d="M334.841 90H209.315V215.526H334.841V90Z" stroke="white" stroke-opacity="0.05" stroke-width="0.5"/>
<path d="M834.419 90H708.895V215.526H834.419V90Z" stroke="white" stroke-opacity="0.05" stroke-width="0.5"/>
<path d="M1334 90H1208.47V215.526H1334V90Z" stroke="white" stroke-opacity="0.05" stroke-width="0.5"/>
<path d="M1833.58 90H1708.05V215.526H1833.58V90Z" stroke="white" stroke-opacity="0.05" stroke-width="0.5"/>
<path d="M209.946 90H84.4199V215.526H209.946V90Z" stroke="white" stroke-opacity="0.05" stroke-width="0.5"/>
<path d="M709.526 90H584V215.526H709.526V90Z" stroke="white" stroke-opacity="0.05" stroke-width="0.5"/>
<path d="M1209.1 90H1083.58V215.526H1209.1V90Z" stroke="white" stroke-opacity="0.05" stroke-width="0.5"/>
<path d="M1708.68 90H1583.16V215.526H1708.68V90Z" stroke="white" stroke-opacity="0.05" stroke-width="0.5"/>
<path d="M459.736 90H334.21V215.526H459.736V90Z" stroke="white" stroke-opacity="0.05" stroke-width="0.5"/>
<path d="M959.315 90H833.789V215.526H959.315V90Z" stroke="white" stroke-opacity="0.05" stroke-width="0.5"/>
<path d="M1458.89 90H1333.37V215.526H1458.89V90Z" stroke="white" stroke-opacity="0.05" stroke-width="0.5"/>
<path d="M1958.47 90H1832.95V215.526H1958.47V90Z" stroke="white" stroke-opacity="0.05" stroke-width="0.5"/>
<path d="M85.051 589.58H-40.4746V715.105H85.051V589.58Z" stroke="white" stroke-opacity="0.05" stroke-width="0.5"/>
<path d="M584.63 589.58H459.104V715.105H584.63V589.58Z" stroke="white" stroke-opacity="0.05" stroke-width="0.5"/>
<path d="M1084.21 589.58H958.685V715.105H1084.21V589.58Z" stroke="white" stroke-opacity="0.05" stroke-width="0.5"/>
<path d="M1583.79 589.58H1458.26V715.105H1583.79V589.58Z" stroke="white" stroke-opacity="0.05" stroke-width="0.5"/>
<path d="M334.841 589.58H209.315V715.105H334.841V589.58Z" stroke="white" stroke-opacity="0.05" stroke-width="0.5"/>
<path d="M834.419 589.58H708.895V715.105H834.419V589.58Z" stroke="white" stroke-opacity="0.05" stroke-width="0.5"/>
<path d="M1334 589.58H1208.47V715.105H1334V589.58Z" stroke="white" stroke-opacity="0.05" stroke-width="0.5"/>
<path d="M1833.58 589.58H1708.05V715.105H1833.58V589.58Z" stroke="white" stroke-opacity="0.05" stroke-width="0.5"/>
<path d="M209.946 589.58H84.4199V715.105H209.946V589.58Z" stroke="white" stroke-opacity="0.05" stroke-width="0.5"/>
<path d="M709.526 589.58H584V715.105H709.526V589.58Z" stroke="white" stroke-opacity="0.05" stroke-width="0.5"/>
<path d="M1209.1 589.58H1083.58V715.105H1209.1V589.58Z" stroke="white" stroke-opacity="0.05" stroke-width="0.5"/>
<path d="M1708.68 589.58H1583.16V715.105H1708.68V589.58Z" stroke="white" stroke-opacity="0.05" stroke-width="0.5"/>
<path d="M459.736 589.58H334.21V715.105H459.736V589.58Z" stroke="white" stroke-opacity="0.05" stroke-width="0.5"/>
<path d="M959.315 589.58H833.789V715.105H959.315V589.58Z" stroke="white" stroke-opacity="0.05" stroke-width="0.5"/>
<path d="M1458.89 589.58H1333.37V715.105H1458.89V589.58Z" stroke="white" stroke-opacity="0.05" stroke-width="0.5"/>
<path d="M1958.47 589.58H1832.95V715.105H1958.47V589.58Z" stroke="white" stroke-opacity="0.05" stroke-width="0.5"/>
</g>
<g clip-path="url(#clip2_2046_681)">
<path d="M85.051 214.895H-40.4746V340.42H85.051V214.895Z" stroke="white" stroke-opacity="0.05" stroke-width="0.5"/>
<path d="M584.63 214.895H459.104V340.42H584.63V214.895Z" stroke="white" stroke-opacity="0.05" stroke-width="0.5"/>
<path d="M1084.21 214.895H958.685V340.42H1084.21V214.895Z" stroke="white" stroke-opacity="0.05" stroke-width="0.5"/>
<path d="M1583.79 214.895H1458.26V340.42H1583.79V214.895Z" stroke="white" stroke-opacity="0.05" stroke-width="0.5"/>
<path d="M334.841 214.895H209.315V340.42H334.841V214.895Z" stroke="white" stroke-opacity="0.05" stroke-width="0.5"/>
<path d="M834.419 214.895H708.895V340.42H834.419V214.895Z" stroke="white" stroke-opacity="0.05" stroke-width="0.5"/>
<path d="M1334 214.895H1208.47V340.42H1334V214.895Z" stroke="white" stroke-opacity="0.05" stroke-width="0.5"/>
<path d="M1833.58 214.895H1708.05V340.42H1833.58V214.895Z" stroke="white" stroke-opacity="0.05" stroke-width="0.5"/>
<path d="M209.946 214.895H84.4199V340.42H209.946V214.895Z" stroke="white" stroke-opacity="0.05" stroke-width="0.5"/>
<path d="M709.526 214.895H584V340.42H709.526V214.895Z" stroke="white" stroke-opacity="0.05" stroke-width="0.5"/>
<path d="M1209.1 214.895H1083.58V340.42H1209.1V214.895Z" stroke="white" stroke-opacity="0.05" stroke-width="0.5"/>
<path d="M1708.68 214.895H1583.16V340.42H1708.68V214.895Z" stroke="white" stroke-opacity="0.05" stroke-width="0.5"/>
<path d="M459.736 214.895H334.21V340.42H459.736V214.895Z" stroke="white" stroke-opacity="0.05" stroke-width="0.5"/>
<path d="M959.315 214.895H833.789V340.42H959.315V214.895Z" stroke="white" stroke-opacity="0.05" stroke-width="0.5"/>
<path d="M1458.89 214.895H1333.37V340.42H1458.89V214.895Z" stroke="white" stroke-opacity="0.05" stroke-width="0.5"/>
<path d="M1958.47 214.895H1832.95V340.42H1958.47V214.895Z" stroke="white" stroke-opacity="0.05" stroke-width="0.5"/>
<path d="M85.051 714.474H-40.4746V840H85.051V714.474Z" stroke="white" stroke-opacity="0.05" stroke-width="0.5"/>
<path d="M584.63 714.474H459.104V840H584.63V714.474Z" stroke="white" stroke-opacity="0.05" stroke-width="0.5"/>
<path d="M1084.21 714.474H958.685V840H1084.21V714.474Z" stroke="white" stroke-opacity="0.05" stroke-width="0.5"/>
<path d="M1583.79 714.474H1458.26V840H1583.79V714.474Z" stroke="white" stroke-opacity="0.05" stroke-width="0.5"/>
<path d="M334.841 714.474H209.315V840H334.841V714.474Z" stroke="white" stroke-opacity="0.05" stroke-width="0.5"/>
<path d="M834.419 714.474H708.895V840H834.419V714.474Z" stroke="white" stroke-opacity="0.05" stroke-width="0.5"/>
<path d="M1334 714.474H1208.47V840H1334V714.474Z" stroke="white" stroke-opacity="0.05" stroke-width="0.5"/>
<path d="M1833.58 714.474H1708.05V840H1833.58V714.474Z" stroke="white" stroke-opacity="0.05" stroke-width="0.5"/>
<path d="M209.946 714.474H84.4199V840H209.946V714.474Z" stroke="white" stroke-opacity="0.05" stroke-width="0.5"/>
<path d="M709.526 714.474H584V840H709.526V714.474Z" stroke="white" stroke-opacity="0.05" stroke-width="0.5"/>
<path d="M1209.1 714.474H1083.58V840H1209.1V714.474Z" stroke="white" stroke-opacity="0.05" stroke-width="0.5"/>
<path d="M1708.68 714.474H1583.16V840H1708.68V714.474Z" stroke="white" stroke-opacity="0.05" stroke-width="0.5"/>
<path d="M459.736 714.474H334.21V840H459.736V714.474Z" stroke="white" stroke-opacity="0.05" stroke-width="0.5"/>
<path d="M959.315 714.474H833.789V840H959.315V714.474Z" stroke="white" stroke-opacity="0.05" stroke-width="0.5"/>
<path d="M1458.89 714.474H1333.37V840H1458.89V714.474Z" stroke="white" stroke-opacity="0.05" stroke-width="0.5"/>
<path d="M1958.47 714.474H1832.95V840H1958.47V714.474Z" stroke="white" stroke-opacity="0.05" stroke-width="0.5"/>
<path d="M85.051 -34.895H-40.4746V90.631H85.051V-34.895Z" stroke="white" stroke-opacity="0.05" stroke-width="0.5"/>
<path d="M584.63 -34.895H459.104V90.631H584.63V-34.895Z" stroke="white" stroke-opacity="0.05" stroke-width="0.5"/>
<path d="M1084.21 -34.895H958.685V90.631H1084.21V-34.895Z" stroke="white" stroke-opacity="0.05" stroke-width="0.5"/>
<path d="M1583.79 -34.895H1458.26V90.631H1583.79V-34.895Z" stroke="white" stroke-opacity="0.05" stroke-width="0.5"/>
<path d="M334.841 -34.895H209.315V90.631H334.841V-34.895Z" stroke="white" stroke-opacity="0.05" stroke-width="0.5"/>
<path d="M834.419 -34.895H708.895V90.631H834.419V-34.895Z" stroke="white" stroke-opacity="0.05" stroke-width="0.5"/>
<path d="M1334 -34.895H1208.47V90.631H1334V-34.895Z" stroke="white" stroke-opacity="0.05" stroke-width="0.5"/>
<path d="M1833.58 -34.895H1708.05V90.631H1833.58V-34.895Z" stroke="white" stroke-opacity="0.05" stroke-width="0.5"/>
<path d="M209.946 -34.895H84.4199V90.631H209.946V-34.895Z" stroke="white" stroke-opacity="0.05" stroke-width="0.5"/>
<path d="M709.526 -34.895H584V90.631H709.526V-34.895Z" stroke="white" stroke-opacity="0.05" stroke-width="0.5"/>
<path d="M1209.1 -34.895H1083.58V90.631H1209.1V-34.895Z" stroke="white" stroke-opacity="0.05" stroke-width="0.5"/>
<path d="M1708.68 -34.895H1583.16V90.631H1708.68V-34.895Z" stroke="white" stroke-opacity="0.05" stroke-width="0.5"/>
<path d="M459.736 -34.895H334.21V90.631H459.736V-34.895Z" stroke="white" stroke-opacity="0.05" stroke-width="0.5"/>
<path d="M959.315 -34.895H833.789V90.631H959.315V-34.895Z" stroke="white" stroke-opacity="0.05" stroke-width="0.5"/>
<path d="M1458.89 -34.895H1333.37V90.631H1458.89V-34.895Z" stroke="white" stroke-opacity="0.05" stroke-width="0.5"/>
<path d="M1958.47 -34.895H1832.95V90.631H1958.47V-34.895Z" stroke="white" stroke-opacity="0.05" stroke-width="0.5"/>
<path d="M85.051 464.685H-40.4746V590.21H85.051V464.685Z" stroke="white" stroke-opacity="0.05" stroke-width="0.5"/>
<path d="M584.63 464.685H459.104V590.21H584.63V464.685Z" stroke="white" stroke-opacity="0.05" stroke-width="0.5"/>
<path d="M1084.21 464.685H958.685V590.21H1084.21V464.685Z" stroke="white" stroke-opacity="0.05" stroke-width="0.5"/>
<path d="M1583.79 464.685H1458.26V590.21H1583.79V464.685Z" stroke="white" stroke-opacity="0.05" stroke-width="0.5"/>
<path d="M334.841 464.685H209.315V590.21H334.841V464.685Z" stroke="white" stroke-opacity="0.05" stroke-width="0.5"/>
<path d="M834.419 464.685H708.895V590.21H834.419V464.685Z" stroke="white" stroke-opacity="0.05" stroke-width="0.5"/>
<path d="M1334 464.685H1208.47V590.21H1334V464.685Z" stroke="white" stroke-opacity="0.05" stroke-width="0.5"/>
<path d="M1833.58 464.685H1708.05V590.21H1833.58V464.685Z" stroke="white" stroke-opacity="0.05" stroke-width="0.5"/>
<path d="M209.946 464.685H84.4199V590.21H209.946V464.685Z" stroke="white" stroke-opacity="0.05" stroke-width="0.5"/>
<path d="M709.526 464.685H584V590.21H709.526V464.685Z" stroke="white" stroke-opacity="0.05" stroke-width="0.5"/>
<path d="M1209.1 464.685H1083.58V590.21H1209.1V464.685Z" stroke="white" stroke-opacity="0.05" stroke-width="0.5"/>
<path d="M1708.68 464.685H1583.16V590.21H1708.68V464.685Z" stroke="white" stroke-opacity="0.05" stroke-width="0.5"/>
<path d="M459.736 464.685H334.21V590.21H459.736V464.685Z" stroke="white" stroke-opacity="0.05" stroke-width="0.5"/>
<path d="M959.315 464.685H833.789V590.21H959.315V464.685Z" stroke="white" stroke-opacity="0.05" stroke-width="0.5"/>
<path d="M1458.89 464.685H1333.37V590.21H1458.89V464.685Z" stroke="white" stroke-opacity="0.05" stroke-width="0.5"/>
<path d="M1958.47 464.685H1832.95V590.21H1958.47V464.685Z" stroke="white" stroke-opacity="0.05" stroke-width="0.5"/>
<path d="M85.051 964.26H-40.4746V1089.79H85.051V964.26Z" stroke="white" stroke-opacity="0.05" stroke-width="0.5"/>
<path d="M584.63 964.26H459.104V1089.79H584.63V964.26Z" stroke="white" stroke-opacity="0.05" stroke-width="0.5"/>
<path d="M1084.21 964.26H958.685V1089.79H1084.21V964.26Z" stroke="white" stroke-opacity="0.05" stroke-width="0.5"/>
<path d="M1583.79 964.26H1458.26V1089.79H1583.79V964.26Z" stroke="white" stroke-opacity="0.05" stroke-width="0.5"/>
<path d="M334.841 964.26H209.315V1089.79H334.841V964.26Z" stroke="white" stroke-opacity="0.05" stroke-width="0.5"/>
<path d="M834.419 964.26H708.895V1089.79H834.419V964.26Z" stroke="white" stroke-opacity="0.05" stroke-width="0.5"/>
<path d="M1334 964.26H1208.47V1089.79H1334V964.26Z" stroke="white" stroke-opacity="0.05" stroke-width="0.5"/>
<path d="M1833.58 964.26H1708.05V1089.79H1833.58V964.26Z" stroke="white" stroke-opacity="0.05" stroke-width="0.5"/>
<path d="M209.946 964.26H84.4199V1089.79H209.946V964.26Z" stroke="white" stroke-opacity="0.05" stroke-width="0.5"/>
<path d="M709.526 964.26H584V1089.79H709.526V964.26Z" stroke="white" stroke-opacity="0.05" stroke-width="0.5"/>
<path d="M1209.1 964.26H1083.58V1089.79H1209.1V964.26Z" stroke="white" stroke-opacity="0.05" stroke-width="0.5"/>
<path d="M1708.68 964.26H1583.16V1089.79H1708.68V964.26Z" stroke="white" stroke-opacity="0.05" stroke-width="0.5"/>
<path d="M459.736 964.26H334.21V1089.79H459.736V964.26Z" stroke="white" stroke-opacity="0.05" stroke-width="0.5"/>
<path d="M959.315 964.26H833.789V1089.79H959.315V964.26Z" stroke="white" stroke-opacity="0.05" stroke-width="0.5"/>
<path d="M1458.89 964.26H1333.37V1089.79H1458.89V964.26Z" stroke="white" stroke-opacity="0.05" stroke-width="0.5"/>
<path d="M1958.47 964.26H1832.95V1089.79H1958.47V964.26Z" stroke="white" stroke-opacity="0.05" stroke-width="0.5"/>
<path d="M85.051 339.79H-40.4746V465.315H85.051V339.79Z" stroke="white" stroke-opacity="0.05" stroke-width="0.5"/>
<path d="M584.63 339.79H459.104V465.315H584.63V339.79Z" stroke="white" stroke-opacity="0.05" stroke-width="0.5"/>
<path d="M1084.21 339.79H958.685V465.315H1084.21V339.79Z" stroke="white" stroke-opacity="0.05" stroke-width="0.5"/>
<path d="M1583.79 339.79H1458.26V465.315H1583.79V339.79Z" stroke="white" stroke-opacity="0.05" stroke-width="0.5"/>
<path d="M334.841 339.79H209.315V465.315H334.841V339.79Z" stroke="white" stroke-opacity="0.05" stroke-width="0.5"/>
<path d="M834.419 339.79H708.895V465.315H834.419V339.79Z" stroke="white" stroke-opacity="0.05" stroke-width="0.5"/>
<path d="M1334 339.79H1208.47V465.315H1334V339.79Z" stroke="white" stroke-opacity="0.05" stroke-width="0.5"/>
<path d="M1833.58 339.79H1708.05V465.315H1833.58V339.79Z" stroke="white" stroke-opacity="0.05" stroke-width="0.5"/>
<path d="M209.946 339.79H84.4199V465.315H209.946V339.79Z" stroke="white" stroke-opacity="0.05" stroke-width="0.5"/>
<path d="M709.526 339.79H584V465.315H709.526V339.79Z" stroke="white" stroke-opacity="0.05" stroke-width="0.5"/>
<path d="M1209.1 339.79H1083.58V465.315H1209.1V339.79Z" stroke="white" stroke-opacity="0.05" stroke-width="0.5"/>
<path d="M1708.68 339.79H1583.16V465.315H1708.68V339.79Z" stroke="white" stroke-opacity="0.05" stroke-width="0.5"/>
<path d="M459.736 339.79H334.21V465.315H459.736V339.79Z" stroke="white" stroke-opacity="0.05" stroke-width="0.5"/>
<path d="M959.315 339.79H833.789V465.315H959.315V339.79Z" stroke="white" stroke-opacity="0.05" stroke-width="0.5"/>
<path d="M1458.89 339.79H1333.37V465.315H1458.89V339.79Z" stroke="white" stroke-opacity="0.05" stroke-width="0.5"/>
<path d="M1958.47 339.79H1832.95V465.315H1958.47V339.79Z" stroke="white" stroke-opacity="0.05" stroke-width="0.5"/>
<path d="M85.051 839.37H-40.4746V964.89H85.051V839.37Z" stroke="white" stroke-opacity="0.05" stroke-width="0.5"/>
<path d="M584.63 839.37H459.104V964.89H584.63V839.37Z" stroke="white" stroke-opacity="0.05" stroke-width="0.5"/>
<path d="M1084.21 839.37H958.685V964.89H1084.21V839.37Z" stroke="white" stroke-opacity="0.05" stroke-width="0.5"/>
<path d="M1583.79 839.37H1458.26V964.89H1583.79V839.37Z" stroke="white" stroke-opacity="0.05" stroke-width="0.5"/>
<path d="M334.841 839.37H209.315V964.89H334.841V839.37Z" stroke="white" stroke-opacity="0.05" stroke-width="0.5"/>
<path d="M834.419 839.37H708.895V964.89H834.419V839.37Z" stroke="white" stroke-opacity="0.05" stroke-width="0.5"/>
<path d="M1334 839.37H1208.47V964.89H1334V839.37Z" stroke="white" stroke-opacity="0.05" stroke-width="0.5"/>
<path d="M1833.58 839.37H1708.05V964.89H1833.58V839.37Z" stroke="white" stroke-opacity="0.05" stroke-width="0.5"/>
<path d="M209.946 839.37H84.4199V964.89H209.946V839.37Z" stroke="white" stroke-opacity="0.05" stroke-width="0.5"/>
<path d="M709.526 839.37H584V964.89H709.526V839.37Z" stroke="white" stroke-opacity="0.05" stroke-width="0.5"/>
<path d="M1209.1 839.37H1083.58V964.89H1209.1V839.37Z" stroke="white" stroke-opacity="0.05" stroke-width="0.5"/>
<path d="M1708.68 839.37H1583.16V964.89H1708.68V839.37Z" stroke="white" stroke-opacity="0.05" stroke-width="0.5"/>
<path d="M459.736 839.37H334.21V964.89H459.736V839.37Z" stroke="white" stroke-opacity="0.05" stroke-width="0.5"/>
<path d="M959.315 839.37H833.789V964.89H959.315V839.37Z" stroke="white" stroke-opacity="0.05" stroke-width="0.5"/>
<path d="M1458.89 839.37H1333.37V964.89H1458.89V839.37Z" stroke="white" stroke-opacity="0.05" stroke-width="0.5"/>
<path d="M1958.47 839.37H1832.95V964.89H1958.47V839.37Z" stroke="white" stroke-opacity="0.05" stroke-width="0.5"/>
<path d="M85.051 90H-40.4746V215.526H85.051V90Z" stroke="white" stroke-opacity="0.05" stroke-width="0.5"/>
<path d="M584.63 90H459.104V215.526H584.63V90Z" stroke="white" stroke-opacity="0.05" stroke-width="0.5"/>
<path d="M1084.21 90H958.685V215.526H1084.21V90Z" stroke="white" stroke-opacity="0.05" stroke-width="0.5"/>
<path d="M1583.79 90H1458.26V215.526H1583.79V90Z" stroke="white" stroke-opacity="0.05" stroke-width="0.5"/>
<path d="M334.841 90H209.315V215.526H334.841V90Z" stroke="white" stroke-opacity="0.05" stroke-width="0.5"/>
<path d="M834.419 90H708.895V215.526H834.419V90Z" stroke="white" stroke-opacity="0.05" stroke-width="0.5"/>
<path d="M1334 90H1208.47V215.526H1334V90Z" stroke="white" stroke-opacity="0.05" stroke-width="0.5"/>
<path d="M1833.58 90H1708.05V215.526H1833.58V90Z" stroke="white" stroke-opacity="0.05" stroke-width="0.5"/>
<path d="M209.946 90H84.4199V215.526H209.946V90Z" stroke="white" stroke-opacity="0.05" stroke-width="0.5"/>
<path d="M709.526 90H584V215.526H709.526V90Z" stroke="white" stroke-opacity="0.05" stroke-width="0.5"/>
<path d="M1209.1 90H1083.58V215.526H1209.1V90Z" stroke="white" stroke-opacity="0.05" stroke-width="0.5"/>
<path d="M1708.68 90H1583.16V215.526H1708.68V90Z" stroke="white" stroke-opacity="0.05" stroke-width="0.5"/>
<path d="M459.736 90H334.21V215.526H459.736V90Z" stroke="white" stroke-opacity="0.05" stroke-width="0.5"/>
<path d="M959.315 90H833.789V215.526H959.315V90Z" stroke="white" stroke-opacity="0.05" stroke-width="0.5"/>
<path d="M1458.89 90H1333.37V215.526H1458.89V90Z" stroke="white" stroke-opacity="0.05" stroke-width="0.5"/>
<path d="M1958.47 90H1832.95V215.526H1958.47V90Z" stroke="white" stroke-opacity="0.05" stroke-width="0.5"/>
<path d="M85.051 589.58H-40.4746V715.105H85.051V589.58Z" stroke="white" stroke-opacity="0.05" stroke-width="0.5"/>
<path d="M584.63 589.58H459.104V715.105H584.63V589.58Z" stroke="white" stroke-opacity="0.05" stroke-width="0.5"/>
<path d="M1084.21 589.58H958.685V715.105H1084.21V589.58Z" stroke="white" stroke-opacity="0.05" stroke-width="0.5"/>
<path d="M1583.79 589.58H1458.26V715.105H1583.79V589.58Z" stroke="white" stroke-opacity="0.05" stroke-width="0.5"/>
<path d="M334.841 589.58H209.315V715.105H334.841V589.58Z" stroke="white" stroke-opacity="0.05" stroke-width="0.5"/>
<path d="M834.419 589.58H708.895V715.105H834.419V589.58Z" stroke="white" stroke-opacity="0.05" stroke-width="0.5"/>
<path d="M1334 589.58H1208.47V715.105H1334V589.58Z" stroke="white" stroke-opacity="0.05" stroke-width="0.5"/>
<path d="M1833.58 589.58H1708.05V715.105H1833.58V589.58Z" stroke="white" stroke-opacity="0.05" stroke-width="0.5"/>
<path d="M209.946 589.58H84.4199V715.105H209.946V589.58Z" stroke="white" stroke-opacity="0.05" stroke-width="0.5"/>
<path d="M709.526 589.58H584V715.105H709.526V589.58Z" stroke="white" stroke-opacity="0.05" stroke-width="0.5"/>
<path d="M1209.1 589.58H1083.58V715.105H1209.1V589.58Z" stroke="white" stroke-opacity="0.05" stroke-width="0.5"/>
<path d="M1708.68 589.58H1583.16V715.105H1708.68V589.58Z" stroke="white" stroke-opacity="0.05" stroke-width="0.5"/>
<path d="M459.736 589.58H334.21V715.105H459.736V589.58Z" stroke="white" stroke-opacity="0.05" stroke-width="0.5"/>
<path d="M959.315 589.58H833.789V715.105H959.315V589.58Z" stroke="white" stroke-opacity="0.05" stroke-width="0.5"/>
<path d="M1458.89 589.58H1333.37V715.105H1458.89V589.58Z" stroke="white" stroke-opacity="0.05" stroke-width="0.5"/>
<path d="M1958.47 589.58H1832.95V715.105H1958.47V589.58Z" stroke="white" stroke-opacity="0.05" stroke-width="0.5"/>
</g>
</g>
<defs>
<clipPath id="clip0_2046_681">
<rect width="1917" height="1000" fill="white"/>
</clipPath>
<clipPath id="clip1_2046_681">
<rect width="1920" height="1430" fill="white" transform="translate(-1 -215)"/>
</clipPath>
<clipPath id="clip2_2046_681">
<rect width="1920" height="1430" fill="white" transform="translate(-1 -215)"/>
</clipPath>
</defs>
</svg>
