<svg width="24" height="24" viewBox="0 0 24 24" fill="none" xmlns="http://www.w3.org/2000/svg">
<path d="M10.5012 6C11.1359 5.9999 11.7469 6.24123 12.2102 6.67504C12.6736 7.10885 12.9545 7.70265 12.9962 8.336L13.0012 8.5V13.105L17.4562 13.711C18.3973 13.8187 19.2697 14.257 19.918 14.9477C20.5663 15.6385 20.9483 16.5369 20.9962 17.483L21.0012 17.685V18C21.002 19.1863 20.739 20.3579 20.2312 21.43C20.1171 21.6696 19.9126 21.8541 19.6625 21.9429C19.4124 22.0317 19.1373 22.0175 18.8977 21.9035C18.6581 21.7895 18.4735 21.5849 18.3848 21.3348C18.296 21.0847 18.3101 20.8096 18.4242 20.57C18.7607 19.8596 18.9544 19.09 18.9942 18.305L19.0012 18V17.685C19.0012 17.2203 18.8395 16.7701 18.5437 16.4117C18.2478 16.0533 17.8365 15.8091 17.3802 15.721L17.1972 15.694L12.7662 15.091C12.307 15.0367 11.8808 14.8251 11.5601 14.492C11.2394 14.1589 11.044 13.7249 11.0072 13.264L11.0012 13.105V8.5C11.0014 8.37505 10.9548 8.25455 10.8707 8.16222C10.7865 8.06988 10.6708 8.01241 10.5464 8.00112C10.4219 7.98983 10.2978 8.02554 10.1983 8.10122C10.0989 8.1769 10.0314 8.28705 10.0092 8.41L10.0012 8.5V17C10.001 17.207 9.93657 17.4089 9.81679 17.5778C9.69702 17.7466 9.52778 17.8742 9.33244 17.9427C9.1371 18.0113 8.92529 18.0176 8.72624 17.9607C8.52718 17.9038 8.3507 17.7865 8.22115 17.625L7.88915 17.218L7.58615 16.864C7.00715 16.207 6.58515 15.844 6.22615 15.661C6.01384 15.5466 5.77199 15.4989 5.53215 15.524L5.39115 15.544L7.89515 20.553C8.00838 20.781 8.03039 21.0436 7.95667 21.2873C7.88296 21.531 7.71908 21.7374 7.49845 21.8644C7.27782 21.9914 7.01704 22.0295 6.76929 21.9709C6.52155 21.9123 6.30548 21.7614 6.16515 21.549L6.10715 21.447L3.33015 15.894C2.97015 15.174 3.23715 14.211 4.07715 13.866C5.12015 13.439 6.11115 13.36 7.13215 13.878C7.35415 13.9913 7.57215 14.1293 7.78615 14.292L8.00115 14.462V8.5C8.00115 7.83696 8.26454 7.20107 8.73338 6.73223C9.20222 6.26339 9.83811 6 10.5012 6ZM10.5012 2C11.5062 1.99981 12.4975 2.23266 13.3973 2.68025C14.2971 3.12784 15.0809 3.77797 15.687 4.57957C16.2931 5.38117 16.7052 6.31241 16.8907 7.30012C17.0762 8.28782 17.0301 9.30509 16.7562 10.272C16.723 10.4011 16.6643 10.5223 16.5836 10.6284C16.5028 10.7346 16.4017 10.8235 16.2861 10.8899C16.1705 10.9564 16.0428 10.9991 15.9105 11.0154C15.7782 11.0318 15.6439 11.0216 15.5156 10.9853C15.3873 10.949 15.2675 10.8874 15.1634 10.8042C15.0592 10.721 14.9728 10.6177 14.9091 10.5006C14.8454 10.3834 14.8058 10.2547 14.7926 10.1221C14.7794 9.98938 14.7928 9.8554 14.8322 9.728C15.0316 9.023 15.0559 8.27996 14.903 7.56343C14.75 6.84691 14.4244 6.17856 13.9545 5.61647C13.4845 5.05438 12.8844 4.61554 12.2063 4.33807C11.5282 4.06061 10.7926 3.95292 10.0634 4.02435C9.33421 4.09578 8.6335 4.34418 8.02213 4.74796C7.41076 5.15174 6.90723 5.6987 6.55529 6.3413C6.20334 6.98391 6.01363 7.70273 6.00263 8.43532C5.99162 9.16791 6.15966 9.89211 6.49215 10.545C6.61282 10.7813 6.63468 11.0559 6.55291 11.3083C6.47115 11.5607 6.29246 11.7703 6.05615 11.891C5.81984 12.0117 5.54527 12.0335 5.29285 11.9518C5.04042 11.87 4.83082 11.6913 4.71015 11.455C4.20431 10.464 3.96135 9.35967 4.00451 8.24785C4.04767 7.13602 4.37552 6.05389 4.95667 5.10505C5.53781 4.15621 6.35279 3.37244 7.32359 2.82877C8.29438 2.2851 9.38848 1.99974 10.5012 2Z" fill="#B5FF00"/>
</svg>
