<svg width="108" height="24" viewBox="0 0 108 24" fill="none" xmlns="http://www.w3.org/2000/svg">
<g clip-path="url(#clip0_2125_1309)">
<path d="M5 0.5H19C21.4853 0.5 23.5 2.51472 23.5 5V19C23.5 21.4853 21.4853 23.5 19 23.5H5C2.51472 23.5 0.5 21.4853 0.5 19V5C0.5 2.51472 2.51472 0.5 5 0.5Z" stroke="white"/>
<path d="M33 0.5H47C49.4853 0.5 51.5 2.51472 51.5 5V19C51.5 21.4853 49.4853 23.5 47 23.5H33C30.5147 23.5 28.5 21.4853 28.5 19V5C28.5 2.51472 30.5147 0.5 33 0.5Z" stroke="white"/>
<path d="M61 0.5H75C77.4853 0.5 79.5 2.51472 79.5 5V19C79.5 21.4853 77.4853 23.5 75 23.5H61C58.5147 23.5 56.5 21.4853 56.5 19V5C56.5 2.51472 58.5147 0.5 61 0.5Z" stroke="white"/>
<path d="M89 0.5H103C105.485 0.5 107.5 2.51472 107.5 5V19C107.5 21.4853 105.485 23.5 103 23.5H89C86.5147 23.5 84.5 21.4853 84.5 19V5C84.5 2.51472 86.5147 0.5 89 0.5Z" stroke="white"/>
</g>
<defs>
<clipPath id="clip0_2125_1309">
<rect width="108" height="24" fill="white"/>
</clipPath>
</defs>
</svg>
