<svg width="15" height="15" viewBox="0 0 15 15" fill="none" xmlns="http://www.w3.org/2000/svg">
<path d="M1.07049 13.3147C0.777594 13.6075 0.777594 14.0824 1.07049 14.3753C1.36338 14.6682 1.83825 14.6682 2.13115 14.3753L1.07049 13.3147ZM14.7959 1.3999C14.7959 0.985689 14.4601 0.649902 14.0459 0.649902L7.2959 0.649902C6.88168 0.649902 6.5459 0.985689 6.5459 1.3999C6.5459 1.81412 6.88168 2.1499 7.2959 2.1499H13.2959V8.1499C13.2959 8.56412 13.6317 8.8999 14.0459 8.8999C14.4601 8.8999 14.7959 8.56412 14.7959 8.1499L14.7959 1.3999ZM1.60082 13.845L2.13115 14.3753L14.5762 1.93023L14.0459 1.3999L13.5156 0.869572L1.07049 13.3147L1.60082 13.845Z" fill="black"/>
</svg>
