<svg width="1710" height="700" viewBox="0 0 1710 700" fill="none" xmlns="http://www.w3.org/2000/svg">
<g clip-path="url(#clip0_2044_291)">
<path d="M481.675 -89.6854H356.5V35.5425H481.675V-89.6854Z" stroke="white" stroke-opacity="0.05" stroke-width="0.5"/>
<path d="M979.861 -89.6854H854.686V35.5425H979.861V-89.6854Z" stroke="white" stroke-opacity="0.05" stroke-width="0.5"/>
<path d="M1478.05 -89.6854H1352.87V35.5425H1478.05V-89.6854Z" stroke="white" stroke-opacity="0.05" stroke-width="0.5"/>
<path d="M232.583 -89.6854H107.407V35.5425H232.583V-89.6854Z" stroke="white" stroke-opacity="0.05" stroke-width="0.5"/>
<path d="M730.768 -89.6854H605.593V35.5425H730.768V-89.6854Z" stroke="white" stroke-opacity="0.05" stroke-width="0.5"/>
<path d="M1228.95 -89.6854H1103.78V35.5425H1228.95V-89.6854Z" stroke="white" stroke-opacity="0.05" stroke-width="0.5"/>
<path d="M1727.14 -89.6854H1601.96V35.5425H1727.14V-89.6854Z" stroke="white" stroke-opacity="0.05" stroke-width="0.5"/>
<path d="M108.037 -89.6854H-17.1387V35.5425H108.037V-89.6854Z" stroke="white" stroke-opacity="0.05" stroke-width="0.5"/>
<path d="M606.222 -89.6854H481.047V35.5425H606.222V-89.6854Z" stroke="white" stroke-opacity="0.05" stroke-width="0.5"/>
<path d="M1104.41 -89.6854H979.231V35.5425H1104.41V-89.6854Z" stroke="white" stroke-opacity="0.05" stroke-width="0.5"/>
<path d="M1602.59 -89.6854H1477.42V35.5425H1602.59V-89.6854Z" stroke="white" stroke-opacity="0.05" stroke-width="0.5"/>
<path d="M357.129 -89.6854H231.953V35.5425H357.129V-89.6854Z" stroke="white" stroke-opacity="0.05" stroke-width="0.5"/>
<path d="M855.314 -89.6854H730.139V35.5425H855.314V-89.6854Z" stroke="white" stroke-opacity="0.05" stroke-width="0.5"/>
<path d="M1353.5 -89.6854H1228.32V35.5425H1353.5V-89.6854Z" stroke="white" stroke-opacity="0.05" stroke-width="0.5"/>
<path d="M481.675 408.709H356.5V533.937H481.675V408.709Z" stroke="white" stroke-opacity="0.05" stroke-width="0.5"/>
<path d="M979.861 408.709H854.686V533.937H979.861V408.709Z" stroke="white" stroke-opacity="0.05" stroke-width="0.5"/>
<path d="M1478.05 408.709H1352.87V533.937H1478.05V408.709Z" stroke="white" stroke-opacity="0.05" stroke-width="0.5"/>
<path d="M232.583 408.709H107.407V533.937H232.583V408.709Z" stroke="white" stroke-opacity="0.05" stroke-width="0.5"/>
<path d="M730.768 408.709H605.593V533.937H730.768V408.709Z" stroke="white" stroke-opacity="0.05" stroke-width="0.5"/>
<path d="M1228.95 408.709H1103.78V533.937H1228.95V408.709Z" stroke="white" stroke-opacity="0.05" stroke-width="0.5"/>
<path d="M1727.14 408.709H1601.96V533.937H1727.14V408.709Z" stroke="white" stroke-opacity="0.05" stroke-width="0.5"/>
<path d="M108.037 408.709H-17.1387V533.937H108.037V408.709Z" stroke="white" stroke-opacity="0.05" stroke-width="0.5"/>
<path d="M606.222 408.709H481.047V533.937H606.222V408.709Z" stroke="white" stroke-opacity="0.05" stroke-width="0.5"/>
<path d="M1104.41 408.709H979.231V533.937H1104.41V408.709Z" stroke="white" stroke-opacity="0.05" stroke-width="0.5"/>
<path d="M1602.59 408.709H1477.42V533.937H1602.59V408.709Z" stroke="white" stroke-opacity="0.05" stroke-width="0.5"/>
<path d="M357.129 408.709H231.953V533.937H357.129V408.709Z" stroke="white" stroke-opacity="0.05" stroke-width="0.5"/>
<path d="M855.314 408.709H730.139V533.937H855.314V408.709Z" stroke="white" stroke-opacity="0.05" stroke-width="0.5"/>
<path d="M1353.5 408.709H1228.32V533.937H1353.5V408.709Z" stroke="white" stroke-opacity="0.05" stroke-width="0.5"/>
<path d="M481.675 159.512H356.5V284.74H481.675V159.512Z" stroke="white" stroke-opacity="0.05" stroke-width="0.5"/>
<path d="M979.861 159.512H854.686V284.74H979.861V159.512Z" stroke="white" stroke-opacity="0.05" stroke-width="0.5"/>
<path d="M1478.05 159.512H1352.87V284.74H1478.05V159.512Z" stroke="white" stroke-opacity="0.05" stroke-width="0.5"/>
<path d="M232.583 159.512H107.407V284.74H232.583V159.512Z" stroke="white" stroke-opacity="0.05" stroke-width="0.5"/>
<path d="M730.768 159.512H605.593V284.74H730.768V159.512Z" stroke="white" stroke-opacity="0.05" stroke-width="0.5"/>
<path d="M1228.95 159.512H1103.78V284.74H1228.95V159.512Z" stroke="white" stroke-opacity="0.05" stroke-width="0.5"/>
<path d="M1727.14 159.512H1601.96V284.74H1727.14V159.512Z" stroke="white" stroke-opacity="0.05" stroke-width="0.5"/>
<path d="M108.037 159.512H-17.1387V284.74H108.037V159.512Z" stroke="white" stroke-opacity="0.05" stroke-width="0.5"/>
<path d="M606.222 159.512H481.047V284.74H606.222V159.512Z" stroke="white" stroke-opacity="0.05" stroke-width="0.5"/>
<path d="M1104.41 159.512H979.231V284.74H1104.41V159.512Z" stroke="white" stroke-opacity="0.05" stroke-width="0.5"/>
<path d="M1602.59 159.512H1477.42V284.74H1602.59V159.512Z" stroke="white" stroke-opacity="0.05" stroke-width="0.5"/>
<path d="M357.129 159.512H231.953V284.74H357.129V159.512Z" stroke="white" stroke-opacity="0.05" stroke-width="0.5"/>
<path d="M855.314 159.512H730.139V284.74H855.314V159.512Z" stroke="white" stroke-opacity="0.05" stroke-width="0.5"/>
<path d="M1353.5 159.512H1228.32V284.74H1353.5V159.512Z" stroke="white" stroke-opacity="0.05" stroke-width="0.5"/>
<path d="M481.675 657.906H356.5V783.134H481.675V657.906Z" stroke="white" stroke-opacity="0.05" stroke-width="0.5"/>
<path d="M979.861 657.906H854.686V783.134H979.861V657.906Z" stroke="white" stroke-opacity="0.05" stroke-width="0.5"/>
<path d="M1478.05 657.906H1352.87V783.134H1478.05V657.906Z" stroke="white" stroke-opacity="0.05" stroke-width="0.5"/>
<path d="M232.583 657.906H107.407V783.134H232.583V657.906Z" stroke="white" stroke-opacity="0.05" stroke-width="0.5"/>
<path d="M730.768 657.906H605.593V783.134H730.768V657.906Z" stroke="white" stroke-opacity="0.05" stroke-width="0.5"/>
<path d="M1228.95 657.906H1103.78V783.134H1228.95V657.906Z" stroke="white" stroke-opacity="0.05" stroke-width="0.5"/>
<path d="M1727.14 657.906H1601.96V783.134H1727.14V657.906Z" stroke="white" stroke-opacity="0.05" stroke-width="0.5"/>
<path d="M108.037 657.906H-17.1387V783.134H108.037V657.906Z" stroke="white" stroke-opacity="0.05" stroke-width="0.5"/>
<path d="M606.222 657.906H481.047V783.134H606.222V657.906Z" stroke="white" stroke-opacity="0.05" stroke-width="0.5"/>
<path d="M1104.41 657.906H979.231V783.134H1104.41V657.906Z" stroke="white" stroke-opacity="0.05" stroke-width="0.5"/>
<path d="M1602.59 657.906H1477.42V783.134H1602.59V657.906Z" stroke="white" stroke-opacity="0.05" stroke-width="0.5"/>
<path d="M357.129 657.906H231.953V783.134H357.129V657.906Z" stroke="white" stroke-opacity="0.05" stroke-width="0.5"/>
<path d="M855.314 657.906H730.139V783.134H855.314V657.906Z" stroke="white" stroke-opacity="0.05" stroke-width="0.5"/>
<path d="M1353.5 657.906H1228.32V783.134H1353.5V657.906Z" stroke="white" stroke-opacity="0.05" stroke-width="0.5"/>
<path d="M481.675 34.9132H356.5V160.141H481.675V34.9132Z" stroke="white" stroke-opacity="0.05" stroke-width="0.5"/>
<path d="M979.861 34.9132H854.686V160.141H979.861V34.9132Z" stroke="white" stroke-opacity="0.05" stroke-width="0.5"/>
<path d="M1478.05 34.9132H1352.87V160.141H1478.05V34.9132Z" stroke="white" stroke-opacity="0.05" stroke-width="0.5"/>
<path d="M232.583 34.9132H107.407V160.141H232.583V34.9132Z" stroke="white" stroke-opacity="0.05" stroke-width="0.5"/>
<path d="M730.768 34.9132H605.593V160.141H730.768V34.9132Z" stroke="white" stroke-opacity="0.05" stroke-width="0.5"/>
<path d="M1228.95 34.9132H1103.78V160.141H1228.95V34.9132Z" stroke="white" stroke-opacity="0.05" stroke-width="0.5"/>
<path d="M1727.14 34.9132H1601.96V160.141H1727.14V34.9132Z" stroke="white" stroke-opacity="0.05" stroke-width="0.5"/>
<path d="M108.037 34.9132H-17.1387V160.141H108.037V34.9132Z" stroke="white" stroke-opacity="0.05" stroke-width="0.5"/>
<path d="M606.222 34.9132H481.047V160.141H606.222V34.9132Z" stroke="white" stroke-opacity="0.05" stroke-width="0.5"/>
<path d="M1104.41 34.9132H979.231V160.141H1104.41V34.9132Z" stroke="white" stroke-opacity="0.05" stroke-width="0.5"/>
<path d="M1602.59 34.9132H1477.42V160.141H1602.59V34.9132Z" stroke="white" stroke-opacity="0.05" stroke-width="0.5"/>
<path d="M357.129 34.9132H231.953V160.141H357.129V34.9132Z" stroke="white" stroke-opacity="0.05" stroke-width="0.5"/>
<path d="M855.314 34.9132H730.139V160.141H855.314V34.9132Z" stroke="white" stroke-opacity="0.05" stroke-width="0.5"/>
<path d="M1353.5 34.9132H1228.32V160.141H1353.5V34.9132Z" stroke="white" stroke-opacity="0.05" stroke-width="0.5"/>
<path d="M481.675 533.307H356.5V658.535H481.675V533.307Z" stroke="white" stroke-opacity="0.05" stroke-width="0.5"/>
<path d="M979.861 533.307H854.686V658.535H979.861V533.307Z" stroke="white" stroke-opacity="0.05" stroke-width="0.5"/>
<path d="M1478.05 533.307H1352.87V658.535H1478.05V533.307Z" stroke="white" stroke-opacity="0.05" stroke-width="0.5"/>
<path d="M232.583 533.307H107.407V658.535H232.583V533.307Z" stroke="white" stroke-opacity="0.05" stroke-width="0.5"/>
<path d="M730.768 533.307H605.593V658.535H730.768V533.307Z" stroke="white" stroke-opacity="0.05" stroke-width="0.5"/>
<path d="M1228.95 533.307H1103.78V658.535H1228.95V533.307Z" stroke="white" stroke-opacity="0.05" stroke-width="0.5"/>
<path d="M1727.14 533.307H1601.96V658.535H1727.14V533.307Z" stroke="white" stroke-opacity="0.05" stroke-width="0.5"/>
<path d="M108.037 533.307H-17.1387V658.535H108.037V533.307Z" stroke="white" stroke-opacity="0.05" stroke-width="0.5"/>
<path d="M606.222 533.307H481.047V658.535H606.222V533.307Z" stroke="white" stroke-opacity="0.05" stroke-width="0.5"/>
<path d="M1104.41 533.307H979.231V658.535H1104.41V533.307Z" stroke="white" stroke-opacity="0.05" stroke-width="0.5"/>
<path d="M1602.59 533.307H1477.42V658.535H1602.59V533.307Z" stroke="white" stroke-opacity="0.05" stroke-width="0.5"/>
<path d="M357.129 533.307H231.953V658.535H357.129V533.307Z" stroke="white" stroke-opacity="0.05" stroke-width="0.5"/>
<path d="M855.314 533.307H730.139V658.535H855.314V533.307Z" stroke="white" stroke-opacity="0.05" stroke-width="0.5"/>
<path d="M1353.5 533.307H1228.32V658.535H1353.5V533.307Z" stroke="white" stroke-opacity="0.05" stroke-width="0.5"/>
<path d="M481.675 284.11H356.5V409.338H481.675V284.11Z" stroke="white" stroke-opacity="0.05" stroke-width="0.5"/>
<path d="M979.861 284.11H854.686V409.338H979.861V284.11Z" stroke="white" stroke-opacity="0.05" stroke-width="0.5"/>
<path d="M1478.05 284.11H1352.87V409.338H1478.05V284.11Z" stroke="white" stroke-opacity="0.05" stroke-width="0.5"/>
<path d="M232.583 284.11H107.407V409.338H232.583V284.11Z" stroke="white" stroke-opacity="0.05" stroke-width="0.5"/>
<path d="M730.768 284.11H605.593V409.338H730.768V284.11Z" stroke="white" stroke-opacity="0.05" stroke-width="0.5"/>
<path d="M1228.95 284.11H1103.78V409.338H1228.95V284.11Z" stroke="white" stroke-opacity="0.05" stroke-width="0.5"/>
<path d="M1727.14 284.11H1601.96V409.338H1727.14V284.11Z" stroke="white" stroke-opacity="0.05" stroke-width="0.5"/>
<path d="M108.037 284.11H-17.1387V409.338H108.037V284.11Z" stroke="white" stroke-opacity="0.05" stroke-width="0.5"/>
<path d="M606.222 284.11H481.047V409.338H606.222V284.11Z" stroke="white" stroke-opacity="0.05" stroke-width="0.5"/>
<path d="M1104.41 284.11H979.231V409.338H1104.41V284.11Z" stroke="white" stroke-opacity="0.05" stroke-width="0.5"/>
<path d="M1602.59 284.11H1477.42V409.338H1602.59V284.11Z" stroke="white" stroke-opacity="0.05" stroke-width="0.5"/>
<path d="M357.129 284.11H231.953V409.338H357.129V284.11Z" stroke="white" stroke-opacity="0.05" stroke-width="0.5"/>
<path d="M855.314 284.11H730.139V409.338H855.314V284.11Z" stroke="white" stroke-opacity="0.05" stroke-width="0.5"/>
<path d="M1353.5 284.11H1228.32V409.338H1353.5V284.11Z" stroke="white" stroke-opacity="0.05" stroke-width="0.5"/>
</g>
<g filter="url(#filter0_f_2044_291)">
<circle cx="-63" cy="-110" r="157" fill="#B5FF00"/>
</g>
<g filter="url(#filter1_f_2044_291)">
<circle cx="1812" cy="751" r="157" fill="#B5FF00"/>
</g>
<defs>
<filter id="filter0_f_2044_291" x="-520" y="-567" width="914" height="914" filterUnits="userSpaceOnUse" color-interpolation-filters="sRGB">
<feFlood flood-opacity="0" result="BackgroundImageFix"/>
<feBlend mode="normal" in="SourceGraphic" in2="BackgroundImageFix" result="shape"/>
<feGaussianBlur stdDeviation="150" result="effect1_foregroundBlur_2044_291"/>
</filter>
<filter id="filter1_f_2044_291" x="1355" y="294" width="914" height="914" filterUnits="userSpaceOnUse" color-interpolation-filters="sRGB">
<feFlood flood-opacity="0" result="BackgroundImageFix"/>
<feBlend mode="normal" in="SourceGraphic" in2="BackgroundImageFix" result="shape"/>
<feGaussianBlur stdDeviation="150" result="effect1_foregroundBlur_2044_291"/>
</filter>
<clipPath id="clip0_2044_291">
<rect width="1994" height="881" fill="white" transform="translate(-142 -90)"/>
</clipPath>
</defs>
</svg>
