<svg width="1710" height="500" viewBox="0 0 1710 500" fill="none" xmlns="http://www.w3.org/2000/svg">
<g clip-path="url(#clip0_2063_4)">
<g clip-path="url(#clip1_2063_4)">
<path d="M481.675 -89.6855H356.5V35.5423H481.675V-89.6855Z" stroke="white" stroke-opacity="0.05" stroke-width="0.5"/>
<path d="M979.861 -89.6855H854.686V35.5423H979.861V-89.6855Z" stroke="white" stroke-opacity="0.05" stroke-width="0.5"/>
<path d="M1478.05 -89.6855H1352.87V35.5423H1478.05V-89.6855Z" stroke="white" stroke-opacity="0.05" stroke-width="0.5"/>
<path d="M232.583 -89.6855H107.407V35.5423H232.583V-89.6855Z" stroke="white" stroke-opacity="0.05" stroke-width="0.5"/>
<path d="M730.768 -89.6855H605.593V35.5423H730.768V-89.6855Z" stroke="white" stroke-opacity="0.05" stroke-width="0.5"/>
<path d="M1228.95 -89.6855H1103.78V35.5423H1228.95V-89.6855Z" stroke="white" stroke-opacity="0.05" stroke-width="0.5"/>
<path d="M1727.14 -89.6855H1601.96V35.5423H1727.14V-89.6855Z" stroke="white" stroke-opacity="0.05" stroke-width="0.5"/>
<path d="M108.037 -89.6855H-17.1387V35.5423H108.037V-89.6855Z" stroke="white" stroke-opacity="0.05" stroke-width="0.5"/>
<path d="M606.222 -89.6855H481.047V35.5423H606.222V-89.6855Z" stroke="white" stroke-opacity="0.05" stroke-width="0.5"/>
<path d="M1104.41 -89.6855H979.231V35.5423H1104.41V-89.6855Z" stroke="white" stroke-opacity="0.05" stroke-width="0.5"/>
<path d="M1602.59 -89.6855H1477.42V35.5423H1602.59V-89.6855Z" stroke="white" stroke-opacity="0.05" stroke-width="0.5"/>
<path d="M357.129 -89.6855H231.953V35.5423H357.129V-89.6855Z" stroke="white" stroke-opacity="0.05" stroke-width="0.5"/>
<path d="M855.314 -89.6855H730.139V35.5423H855.314V-89.6855Z" stroke="white" stroke-opacity="0.05" stroke-width="0.5"/>
<path d="M1353.5 -89.6855H1228.32V35.5423H1353.5V-89.6855Z" stroke="white" stroke-opacity="0.05" stroke-width="0.5"/>
<path d="M481.675 408.709H356.5V533.937H481.675V408.709Z" stroke="white" stroke-opacity="0.05" stroke-width="0.5"/>
<path d="M979.861 408.709H854.686V533.937H979.861V408.709Z" stroke="white" stroke-opacity="0.05" stroke-width="0.5"/>
<path d="M1478.05 408.709H1352.87V533.937H1478.05V408.709Z" stroke="white" stroke-opacity="0.05" stroke-width="0.5"/>
<path d="M232.583 408.709H107.407V533.937H232.583V408.709Z" stroke="white" stroke-opacity="0.05" stroke-width="0.5"/>
<path d="M730.768 408.709H605.593V533.937H730.768V408.709Z" stroke="white" stroke-opacity="0.05" stroke-width="0.5"/>
<path d="M1228.95 408.709H1103.78V533.937H1228.95V408.709Z" stroke="white" stroke-opacity="0.05" stroke-width="0.5"/>
<path d="M1727.14 408.709H1601.96V533.937H1727.14V408.709Z" stroke="white" stroke-opacity="0.05" stroke-width="0.5"/>
<path d="M108.037 408.709H-17.1387V533.937H108.037V408.709Z" stroke="white" stroke-opacity="0.05" stroke-width="0.5"/>
<path d="M606.222 408.709H481.047V533.937H606.222V408.709Z" stroke="white" stroke-opacity="0.05" stroke-width="0.5"/>
<path d="M1104.41 408.709H979.231V533.937H1104.41V408.709Z" stroke="white" stroke-opacity="0.05" stroke-width="0.5"/>
<path d="M1602.59 408.709H1477.42V533.937H1602.59V408.709Z" stroke="white" stroke-opacity="0.05" stroke-width="0.5"/>
<path d="M357.129 408.709H231.953V533.937H357.129V408.709Z" stroke="white" stroke-opacity="0.05" stroke-width="0.5"/>
<path d="M855.314 408.709H730.139V533.937H855.314V408.709Z" stroke="white" stroke-opacity="0.05" stroke-width="0.5"/>
<path d="M1353.5 408.709H1228.32V533.937H1353.5V408.709Z" stroke="white" stroke-opacity="0.05" stroke-width="0.5"/>
<path d="M481.675 159.512H356.5V284.74H481.675V159.512Z" stroke="white" stroke-opacity="0.05" stroke-width="0.5"/>
<path d="M979.861 159.512H854.686V284.74H979.861V159.512Z" stroke="white" stroke-opacity="0.05" stroke-width="0.5"/>
<path d="M1478.05 159.512H1352.87V284.74H1478.05V159.512Z" stroke="white" stroke-opacity="0.05" stroke-width="0.5"/>
<path d="M232.583 159.512H107.407V284.74H232.583V159.512Z" stroke="white" stroke-opacity="0.05" stroke-width="0.5"/>
<path d="M730.768 159.512H605.593V284.74H730.768V159.512Z" stroke="white" stroke-opacity="0.05" stroke-width="0.5"/>
<path d="M1228.95 159.512H1103.78V284.74H1228.95V159.512Z" stroke="white" stroke-opacity="0.05" stroke-width="0.5"/>
<path d="M1727.14 159.512H1601.96V284.74H1727.14V159.512Z" stroke="white" stroke-opacity="0.05" stroke-width="0.5"/>
<path d="M108.037 159.512H-17.1387V284.74H108.037V159.512Z" stroke="white" stroke-opacity="0.05" stroke-width="0.5"/>
<path d="M606.222 159.512H481.047V284.74H606.222V159.512Z" stroke="white" stroke-opacity="0.05" stroke-width="0.5"/>
<path d="M1104.41 159.512H979.231V284.74H1104.41V159.512Z" stroke="white" stroke-opacity="0.05" stroke-width="0.5"/>
<path d="M1602.59 159.512H1477.42V284.74H1602.59V159.512Z" stroke="white" stroke-opacity="0.05" stroke-width="0.5"/>
<path d="M357.129 159.512H231.953V284.74H357.129V159.512Z" stroke="white" stroke-opacity="0.05" stroke-width="0.5"/>
<path d="M855.314 159.512H730.139V284.74H855.314V159.512Z" stroke="white" stroke-opacity="0.05" stroke-width="0.5"/>
<path d="M1353.5 159.512H1228.32V284.74H1353.5V159.512Z" stroke="white" stroke-opacity="0.05" stroke-width="0.5"/>
<path d="M481.675 34.9131H356.5V160.141H481.675V34.9131Z" stroke="white" stroke-opacity="0.05" stroke-width="0.5"/>
<path d="M979.861 34.9131H854.686V160.141H979.861V34.9131Z" stroke="white" stroke-opacity="0.05" stroke-width="0.5"/>
<path d="M1478.05 34.9131H1352.87V160.141H1478.05V34.9131Z" stroke="white" stroke-opacity="0.05" stroke-width="0.5"/>
<path d="M232.583 34.9131H107.407V160.141H232.583V34.9131Z" stroke="white" stroke-opacity="0.05" stroke-width="0.5"/>
<path d="M730.768 34.9131H605.593V160.141H730.768V34.9131Z" stroke="white" stroke-opacity="0.05" stroke-width="0.5"/>
<path d="M1228.95 34.9131H1103.78V160.141H1228.95V34.9131Z" stroke="white" stroke-opacity="0.05" stroke-width="0.5"/>
<path d="M1727.14 34.9131H1601.96V160.141H1727.14V34.9131Z" stroke="white" stroke-opacity="0.05" stroke-width="0.5"/>
<path d="M108.037 34.9131H-17.1387V160.141H108.037V34.9131Z" stroke="white" stroke-opacity="0.05" stroke-width="0.5"/>
<path d="M606.222 34.9131H481.047V160.141H606.222V34.9131Z" stroke="white" stroke-opacity="0.05" stroke-width="0.5"/>
<path d="M1104.41 34.9131H979.231V160.141H1104.41V34.9131Z" stroke="white" stroke-opacity="0.05" stroke-width="0.5"/>
<path d="M1602.59 34.9131H1477.42V160.141H1602.59V34.9131Z" stroke="white" stroke-opacity="0.05" stroke-width="0.5"/>
<path d="M357.129 34.9131H231.953V160.141H357.129V34.9131Z" stroke="white" stroke-opacity="0.05" stroke-width="0.5"/>
<path d="M855.314 34.9131H730.139V160.141H855.314V34.9131Z" stroke="white" stroke-opacity="0.05" stroke-width="0.5"/>
<path d="M1353.5 34.9131H1228.32V160.141H1353.5V34.9131Z" stroke="white" stroke-opacity="0.05" stroke-width="0.5"/>
<path d="M481.675 284.11H356.5V409.338H481.675V284.11Z" stroke="white" stroke-opacity="0.05" stroke-width="0.5"/>
<path d="M979.861 284.11H854.686V409.338H979.861V284.11Z" stroke="white" stroke-opacity="0.05" stroke-width="0.5"/>
<path d="M1478.05 284.11H1352.87V409.338H1478.05V284.11Z" stroke="white" stroke-opacity="0.05" stroke-width="0.5"/>
<path d="M232.583 284.11H107.407V409.338H232.583V284.11Z" stroke="white" stroke-opacity="0.05" stroke-width="0.5"/>
<path d="M730.768 284.11H605.593V409.338H730.768V284.11Z" stroke="white" stroke-opacity="0.05" stroke-width="0.5"/>
<path d="M1228.95 284.11H1103.78V409.338H1228.95V284.11Z" stroke="white" stroke-opacity="0.05" stroke-width="0.5"/>
<path d="M1727.14 284.11H1601.96V409.338H1727.14V284.11Z" stroke="white" stroke-opacity="0.05" stroke-width="0.5"/>
<path d="M108.037 284.11H-17.1387V409.338H108.037V284.11Z" stroke="white" stroke-opacity="0.05" stroke-width="0.5"/>
<path d="M606.222 284.11H481.047V409.338H606.222V284.11Z" stroke="white" stroke-opacity="0.05" stroke-width="0.5"/>
<path d="M1104.41 284.11H979.231V409.338H1104.41V284.11Z" stroke="white" stroke-opacity="0.05" stroke-width="0.5"/>
<path d="M1602.59 284.11H1477.42V409.338H1602.59V284.11Z" stroke="white" stroke-opacity="0.05" stroke-width="0.5"/>
<path d="M357.129 284.11H231.953V409.338H357.129V284.11Z" stroke="white" stroke-opacity="0.05" stroke-width="0.5"/>
<path d="M855.314 284.11H730.139V409.338H855.314V284.11Z" stroke="white" stroke-opacity="0.05" stroke-width="0.5"/>
<path d="M1353.5 284.11H1228.32V409.338H1353.5V284.11Z" stroke="white" stroke-opacity="0.05" stroke-width="0.5"/>
</g>
</g>
<defs>
<clipPath id="clip0_2063_4">
<rect width="1710" height="500" rx="30" fill="white"/>
</clipPath>
<clipPath id="clip1_2063_4">
<rect width="1994" height="881" fill="white" transform="translate(-142 -90)"/>
</clipPath>
</defs>
</svg>
