<svg width="172" height="70" viewBox="0 0 172 70" fill="none" xmlns="http://www.w3.org/2000/svg">
<path d="M37.5711 39.4025H3.63112C0.499617 39.4025 -1.15777 35.6958 0.928844 33.3592L28.5424 2.43485C32.977 -2.53145 41.1949 0.60776 41.1949 7.26804V35.7757C41.1949 37.7786 39.5725 39.4025 37.5711 39.4025Z" fill="white"/>
<path d="M29.5791 30.5977H63.5189C66.6505 30.5977 68.3079 34.3041 66.2211 36.641L38.6076 67.5651C34.173 72.5316 25.9551 69.3924 25.9551 62.7321V34.2244C25.9551 32.2213 27.5775 30.5977 29.5791 30.5977Z" fill="white"/>
<path d="M147.698 69.4187H141.708L133.519 47.0098H138.499L144.692 64.0513L150.906 47.0098H155.865L147.698 69.4187Z" fill="white"/>
<path d="M121.117 70.0001C119.053 70.0001 117.169 69.4708 115.464 68.4122C113.773 67.3537 112.42 65.9373 111.403 64.163C110.4 62.3739 109.899 60.3984 109.899 58.2365C109.899 56.5965 110.191 55.0683 110.774 53.6519C111.358 52.2206 112.158 50.9682 113.175 49.8947C114.207 48.8063 115.404 47.9564 116.765 47.3452C118.126 46.7339 119.577 46.4282 121.117 46.4282C122.837 46.4282 124.415 46.7861 125.851 47.5017C127.287 48.2025 128.514 49.179 129.531 50.4314C130.548 51.6689 131.296 53.1002 131.774 54.7253C132.253 56.3356 132.395 58.0502 132.201 59.8691H114.903C115.097 60.8979 115.471 61.8297 116.024 62.6646C116.593 63.4847 117.311 64.1332 118.178 64.6103C119.061 65.0874 120.04 65.3334 121.117 65.3484C122.254 65.3484 123.286 65.0651 124.214 64.4985C125.156 63.9319 125.926 63.1492 126.524 62.1503L131.258 63.2461C130.361 65.2291 129.007 66.8542 127.197 68.1215C125.388 69.3739 123.361 70.0001 121.117 70.0001ZM114.746 56.3132H127.489C127.34 55.2397 126.958 54.2706 126.345 53.4059C125.747 52.5262 124.991 51.8329 124.079 51.326C123.181 50.8042 122.194 50.5432 121.117 50.5432C120.055 50.5432 119.068 50.7967 118.156 51.3036C117.258 51.8105 116.511 52.5038 115.912 53.3835C115.329 54.2482 114.94 55.2248 114.746 56.3132Z" fill="white"/>
<path d="M81.667 69.4183V38.1084H92.0548C94.2236 38.1084 96.2578 38.5184 98.1574 39.3384C100.057 40.1435 101.725 41.2692 103.161 42.7154C104.596 44.1467 105.718 45.8091 106.526 47.7027C107.349 49.5812 107.76 51.6015 107.76 53.7634C107.76 55.9252 107.349 57.9529 106.526 59.8464C105.718 61.725 104.596 63.3874 103.161 64.8336C101.725 66.2649 100.057 67.3906 98.1574 68.2106C96.2578 69.0157 94.2236 69.4183 92.0548 69.4183H81.667ZM86.3337 64.7665H92.0548C93.5805 64.7665 95.0014 64.4833 96.3176 63.9167C97.6488 63.3501 98.823 62.5599 99.8401 61.5461C100.872 60.5323 101.672 59.3619 102.241 58.0349C102.809 56.708 103.093 55.2841 103.093 53.7634C103.093 52.2426 102.809 50.8187 102.241 49.4918C101.672 48.1648 100.872 46.9945 99.8401 45.9806C98.823 44.9668 97.6488 44.1766 96.3176 43.61C95.0014 43.0434 93.5805 42.7602 92.0548 42.7602H86.3337V64.7665Z" fill="white"/>
<path d="M166.928 8.9458H171.909L159.614 42.4921H154.656L158.717 31.31L150.662 8.9458H155.755L161.05 24.9362L166.928 8.9458Z" fill="white"/>
<path d="M147.65 13.5976L135.175 26.6583H147.65V31.31H128.489V26.6583L140.964 13.5976H128.489V8.9458H147.65V13.5976Z" fill="white"/>
<path d="M120.243 8.94553H124.909V31.3097H120.22L120.041 28.0669C119.383 29.215 118.493 30.1394 117.371 30.8401C116.249 31.5408 114.925 31.8912 113.4 31.8912C111.754 31.8912 110.206 31.5856 108.756 30.9743C107.305 30.3481 106.026 29.4833 104.919 28.38C103.827 27.2767 102.975 26.0094 102.361 24.5781C101.748 23.1319 101.441 21.5813 101.441 19.9264C101.441 18.331 101.741 16.8326 102.339 15.4312C102.937 14.0148 103.767 12.7773 104.829 11.7187C105.891 10.6601 107.118 9.83265 108.509 9.23627C109.915 8.62498 111.418 8.31934 113.018 8.31934C114.649 8.31934 116.085 8.69207 117.326 9.43755C118.582 10.1681 119.622 11.1074 120.445 12.2554L120.243 8.94553ZM113.288 27.396C114.604 27.396 115.756 27.0755 116.743 26.4344C117.73 25.7783 118.493 24.8987 119.031 23.7954C119.585 22.6921 119.861 21.4695 119.861 20.1276C119.861 18.7709 119.585 17.5408 119.031 16.4375C118.478 15.3342 117.707 14.462 116.72 13.8209C115.748 13.1649 114.604 12.8369 113.288 12.8369C111.986 12.8369 110.797 13.1649 109.72 13.8209C108.643 14.4769 107.791 15.3566 107.163 16.4599C106.534 17.5632 106.22 18.7858 106.22 20.1276C106.22 21.4844 106.542 22.7144 107.185 23.8177C107.843 24.9061 108.703 25.7783 109.765 26.4344C110.842 27.0755 112.016 27.396 113.288 27.396Z" fill="white"/>
<path d="M81.667 31.3099V0H86.3337V26.6581H99.8625V31.3099H81.667Z" fill="white"/>
</svg>
