<svg width="132" height="31" viewBox="0 0 132 31" fill="none" xmlns="http://www.w3.org/2000/svg">
<path d="M41.78 20.16H46.48V22H39.5V8.1H41.78V20.16ZM48.6267 16.44C48.6267 15.3333 48.8534 14.3533 49.3067 13.5C49.7734 12.6467 50.4001 11.9867 51.1867 11.52C51.9867 11.04 52.8667 10.8 53.8267 10.8C54.6934 10.8 55.4467 10.9733 56.0867 11.32C56.7401 11.6533 57.2601 12.0733 57.6467 12.58V10.98H59.9467V22H57.6467V20.36C57.2601 20.88 56.7334 21.3133 56.0667 21.66C55.4001 22.0067 54.6401 22.18 53.7867 22.18C52.8401 22.18 51.9734 21.94 51.1867 21.46C50.4001 20.9667 49.7734 20.2867 49.3067 19.42C48.8534 18.54 48.6267 17.5467 48.6267 16.44ZM57.6467 16.48C57.6467 15.72 57.4867 15.06 57.1667 14.5C56.8601 13.94 56.4534 13.5133 55.9467 13.22C55.4401 12.9267 54.8934 12.78 54.3067 12.78C53.7201 12.78 53.1734 12.9267 52.6667 13.22C52.1601 13.5 51.7467 13.92 51.4267 14.48C51.1201 15.0267 50.9667 15.68 50.9667 16.44C50.9667 17.2 51.1201 17.8667 51.4267 18.44C51.7467 19.0133 52.1601 19.4533 52.6667 19.76C53.1867 20.0533 53.7334 20.2 54.3067 20.2C54.8934 20.2 55.4401 20.0533 55.9467 19.76C56.4534 19.4667 56.8601 19.04 57.1667 18.48C57.4867 17.9067 57.6467 17.24 57.6467 16.48ZM65.9614 20.14H70.9614V22H63.3214V20.14L68.3414 12.84H63.3214V10.98H70.9614V12.84L65.9614 20.14ZM84.2755 10.98L77.5155 27.18H75.1555L77.3955 21.82L73.0555 10.98H75.5955L78.6955 19.38L81.9155 10.98H84.2755ZM97.7314 8.1C99.2114 8.1 100.505 8.38667 101.611 8.96C102.731 9.52 103.591 10.3333 104.191 11.4C104.805 12.4533 105.111 13.6867 105.111 15.1C105.111 16.5133 104.805 17.74 104.191 18.78C103.591 19.82 102.731 20.62 101.611 21.18C100.505 21.7267 99.2114 22 97.7314 22H93.1914V8.1H97.7314ZM97.7314 20.14C99.3581 20.14 100.605 19.7 101.471 18.82C102.338 17.94 102.771 16.7 102.771 15.1C102.771 13.4867 102.338 12.2267 101.471 11.32C100.605 10.4133 99.3581 9.96 97.7314 9.96H95.4714V20.14H97.7314ZM118.471 16.22C118.471 16.6333 118.444 17.0067 118.391 17.34H109.971C110.038 18.22 110.364 18.9267 110.951 19.46C111.538 19.9933 112.258 20.26 113.111 20.26C114.338 20.26 115.204 19.7467 115.711 18.72H118.171C117.838 19.7333 117.231 20.5667 116.351 21.22C115.484 21.86 114.404 22.18 113.111 22.18C112.058 22.18 111.111 21.9467 110.271 21.48C109.444 21 108.791 20.3333 108.311 19.48C107.844 18.6133 107.611 17.6133 107.611 16.48C107.611 15.3467 107.838 14.3533 108.291 13.5C108.758 12.6333 109.404 11.9667 110.231 11.5C111.071 11.0333 112.031 10.8 113.111 10.8C114.151 10.8 115.078 11.0267 115.891 11.48C116.704 11.9333 117.338 12.5733 117.791 13.4C118.244 14.2133 118.471 15.1533 118.471 16.22ZM116.091 15.5C116.078 14.66 115.778 13.9867 115.191 13.48C114.604 12.9733 113.878 12.72 113.011 12.72C112.224 12.72 111.551 12.9733 110.991 13.48C110.431 13.9733 110.098 14.6467 109.991 15.5H116.091ZM125.975 19.96L129.095 10.98H131.515L127.315 22H124.595L120.415 10.98H122.855L125.975 19.96Z" fill="white"/>
<g clip-path="url(#clip0_2001_4)">
<path d="M16.7645 17.3417H1.62041C0.223112 17.3417 -0.516658 15.7104 0.414406 14.6819L12.7358 1.07162C14.7146 -1.11414 18.3815 0.267488 18.3815 3.19879V15.7455C18.3815 16.6271 17.6576 17.3417 16.7645 17.3417Z" fill="white"/>
<path d="M11.2352 13.4663H26.3795C27.7768 13.4663 28.5163 15.0977 27.5853 16.1261L15.2638 29.7364C13.2851 31.9221 9.61816 30.5405 9.61816 27.6092V15.0625C9.61816 14.181 10.3422 13.4663 11.2352 13.4663Z" fill="white"/>
</g>
<defs>
<clipPath id="clip0_2001_4">
<rect width="28" height="31" fill="white"/>
</clipPath>
</defs>
</svg>
