<svg width="730" height="450" viewBox="0 0 730 450" fill="none" xmlns="http://www.w3.org/2000/svg">
<g clip-path="url(#clip0_2020_324)">
<path d="M700 0C716.569 8.69751e-06 730 13.4315 730 30V330C730 352.091 712.091 370 690 370H471.5H470C447.909 370 430 387.909 430 410V410C430 432.091 412.091 450 390 450H30C13.4315 450 8.45644e-07 436.569 0 420V30C0 13.4315 13.4315 0 30 0H700Z" fill="#111111"/>
<path d="M30 0.5H700C716.293 0.500009 729.5 13.7076 729.5 30V330C729.5 351.815 711.815 369.5 690 369.5H470C447.632 369.5 429.5 387.632 429.5 410C429.5 431.815 411.815 449.5 390 449.5H30C13.7076 449.5 0.500001 436.293 0.5 420V30C0.5 13.7076 13.7076 0.5 30 0.5Z" stroke="white" stroke-opacity="0.6"/>
<g opacity="0.7" clip-path="url(#clip1_2020_324)">
<g opacity="0.1">
<path d="M445.962 -14.4731H366.102V65.451H445.962V-14.4731Z" stroke="white" stroke-width="0.5"/>
<path d="M445.962 65.8525H366.102V145.777H445.962V65.8525Z" stroke="white" stroke-width="0.5"/>
<path d="M445.962 145.375H366.102V225.299H445.962V145.375Z" stroke="white" stroke-width="0.5"/>
<path d="M47.0607 -14.4731H-32.7998V65.451H47.0607V-14.4731Z" stroke="white" stroke-width="0.5"/>
<path d="M47.0607 65.8525H-32.7998V145.777H47.0607V65.8525Z" stroke="white" stroke-width="0.5"/>
<path d="M47.0607 145.375H-32.7998V225.299H47.0607V145.375Z" stroke="white" stroke-width="0.5"/>
<path d="M127.322 -14.4731H47.4619V65.451H127.322V-14.4731Z" stroke="white" stroke-width="0.5"/>
<path d="M127.322 65.8525H47.4619V145.777H127.322V65.8525Z" stroke="white" stroke-width="0.5"/>
<path d="M127.322 145.375H47.4619V225.299H127.322V145.375Z" stroke="white" stroke-width="0.5"/>
<path d="M525.421 -14.4731H445.561V65.451H525.421V-14.4731Z" stroke="white" stroke-width="0.5"/>
<path d="M525.421 65.8525H445.561V145.777H525.421V65.8525Z" stroke="white" stroke-width="0.5"/>
<path d="M525.421 145.375H445.561V225.299H525.421V145.375Z" stroke="white" stroke-width="0.5"/>
<path d="M604.88 -14.4731H525.02V65.451H604.88V-14.4731Z" stroke="white" stroke-width="0.5"/>
<path d="M604.88 65.8525H525.02V145.777H604.88V65.8525Z" stroke="white" stroke-width="0.5"/>
<path d="M604.88 145.375H525.02V225.299H604.88V145.375Z" stroke="white" stroke-width="0.5"/>
<path d="M207.584 -14.4731H127.724V65.451H207.584V-14.4731Z" stroke="white" stroke-width="0.5"/>
<path d="M207.584 65.8525H127.724V145.777H207.584V65.8525Z" stroke="white" stroke-width="0.5"/>
<path d="M207.584 145.375H127.724V225.299H207.584V145.375Z" stroke="white" stroke-width="0.5"/>
<path d="M684.34 -14.4731H604.479V65.451H684.34V-14.4731Z" stroke="white" stroke-width="0.5"/>
<path d="M684.34 65.8525H604.479V145.777H684.34V65.8525Z" stroke="white" stroke-width="0.5"/>
<path d="M684.34 145.375H604.479V225.299H684.34V145.375Z" stroke="white" stroke-width="0.5"/>
<path d="M287.043 -14.4731H207.183V65.451H287.043V-14.4731Z" stroke="white" stroke-width="0.5"/>
<path d="M287.043 65.8525H207.183V145.777H287.043V65.8525Z" stroke="white" stroke-width="0.5"/>
<path d="M287.043 145.375H207.183V225.299H287.043V145.375Z" stroke="white" stroke-width="0.5"/>
<path d="M763.799 -14.4731H683.938V65.451H763.799V-14.4731Z" stroke="white" stroke-width="0.5"/>
<path d="M763.799 65.8525H683.938V145.777H763.799V65.8525Z" stroke="white" stroke-width="0.5"/>
<path d="M763.799 145.375H683.938V225.299H763.799V145.375Z" stroke="white" stroke-width="0.5"/>
<path d="M366.503 -14.4731H286.643V65.451H366.503V-14.4731Z" stroke="white" stroke-width="0.5"/>
<path d="M366.503 65.8525H286.643V145.777H366.503V65.8525Z" stroke="white" stroke-width="0.5"/>
<path d="M366.503 145.375H286.643V225.299H366.503V145.375Z" stroke="white" stroke-width="0.5"/>
</g>
<g opacity="0.1">
<path d="M445.962 225.701H366.102V305.625H445.962V225.701Z" stroke="white" stroke-width="0.5"/>
<path d="M445.962 376.5V306.027H366.102V385.951H436.5" stroke="white" stroke-width="0.5"/>
<path d="M47.0607 225.701H-32.7998V305.625H47.0607V225.701Z" stroke="white" stroke-width="0.5"/>
<path d="M47.0607 306.027H-32.7998V385.951H47.0607V306.027Z" stroke="white" stroke-width="0.5"/>
<path d="M47.0607 386.353H-32.7998V466.277H47.0607V386.353Z" stroke="white" stroke-width="0.5"/>
<path d="M127.322 225.701H47.4619V305.625H127.322V225.701Z" stroke="white" stroke-width="0.5"/>
<path d="M127.322 306.027H47.4619V385.951H127.322V306.027Z" stroke="white" stroke-width="0.5"/>
<path d="M127.322 386.353H47.4619V466.277H127.322V386.353Z" stroke="white" stroke-width="0.5"/>
<path d="M525.421 225.701H445.561V305.625H525.421V225.701Z" stroke="white" stroke-width="0.5"/>
<path d="M525.421 369.5V306.027H445.561V377" stroke="white" stroke-width="0.5"/>
<path d="M604.88 225.701H525.02V305.625H604.88V225.701Z" stroke="white" stroke-width="0.5"/>
<path d="M207.584 225.701H127.724V305.625H207.584V225.701Z" stroke="white" stroke-width="0.5"/>
<path d="M207.584 306.027H127.724V385.951H207.584V306.027Z" stroke="white" stroke-width="0.5"/>
<path d="M207.584 386.353H127.724V466.277H207.584V386.353Z" stroke="white" stroke-width="0.5"/>
<path d="M684.34 225.701H604.479V305.625H684.34V225.701Z" stroke="white" stroke-width="0.5"/>
<path d="M684.34 369.5V306.027H604.479V369.5" stroke="white" stroke-width="0.5"/>
<path d="M287.043 225.701H207.183V305.625H287.043V225.701Z" stroke="white" stroke-width="0.5"/>
<path d="M287.043 306.027H207.183V385.951H287.043V306.027Z" stroke="white" stroke-width="0.5"/>
<path d="M287.043 386.353H207.183V466.277H287.043V386.353Z" stroke="white" stroke-width="0.5"/>
<path d="M763.799 225.701H683.938V305.625H763.799V225.701Z" stroke="white" stroke-width="0.5"/>
<path d="M729.5 306.027H683.938V368.5" stroke="white" stroke-width="0.5"/>
<path d="M366.503 225.701H286.643V305.625H366.503V225.701Z" stroke="white" stroke-width="0.5"/>
<path d="M366.503 306.027H286.643V385.951H366.503V306.027Z" stroke="white" stroke-width="0.5"/>
<path d="M366.503 386.353H286.643V466.277H366.503V386.353Z" stroke="white" stroke-width="0.5"/>
</g>
</g>
</g>
<defs>
<clipPath id="clip0_2020_324">
<rect width="730" height="450" fill="white"/>
</clipPath>
<clipPath id="clip1_2020_324">
<rect width="797" height="641" fill="white" transform="translate(-33 -95)"/>
</clipPath>
</defs>
</svg>
