<svg width="580" height="457" viewBox="0 0 580 457" fill="none" xmlns="http://www.w3.org/2000/svg">
<g clip-path="url(#clip0_2020_895)">
<g clip-path="url(#clip1_2020_895)">
<path d="M556.164 0C569.329 8.69751e-06 580 13.4315 580 30V330C580 352.091 562.091 370 540 370H316.5V370C296.342 370 280 386.342 280 406.5V410C280 432.091 262.091 450 240 450H23.8356C10.6716 450 6.71882e-07 436.569 0 420V30C0 13.4315 10.6716 0 23.8356 0H556.164Z" fill="#111111"/>
<path d="M23.8359 0.5H556.164C568.951 0.500008 579.5 13.5943 579.5 30V330C579.5 351.815 561.815 369.5 540 369.5H316.5C296.065 369.5 279.5 386.065 279.5 406.5V410C279.5 431.815 261.815 449.5 240 449.5H23.8359C11.0492 449.5 0.500001 436.406 0.5 420V30C0.5 13.5943 11.0492 0.5 23.8359 0.5Z" stroke="white" stroke-opacity="0.6"/>
<g opacity="0.3" clip-path="url(#clip2_2020_895)">
<g opacity="0.1">
<path d="M445.962 -14.4731H366.102V65.451H445.962V-14.4731Z" stroke="white" stroke-width="0.5"/>
<path d="M445.962 65.8525H366.102V145.777H445.962V65.8525Z" stroke="white" stroke-width="0.5"/>
<path d="M445.962 145.375H366.102V225.299H445.962V145.375Z" stroke="white" stroke-width="0.5"/>
<path d="M47.0607 -14.4731H-32.7998V65.451H47.0607V-14.4731Z" stroke="white" stroke-width="0.5"/>
<path d="M47.0607 65.8525H-32.7998V145.777H47.0607V65.8525Z" stroke="white" stroke-width="0.5"/>
<path d="M47.0607 145.375H-32.7998V225.299H47.0607V145.375Z" stroke="white" stroke-width="0.5"/>
<path d="M127.322 -14.4731H47.4619V65.451H127.322V-14.4731Z" stroke="white" stroke-width="0.5"/>
<path d="M127.322 65.8525H47.4619V145.777H127.322V65.8525Z" stroke="white" stroke-width="0.5"/>
<path d="M127.322 145.375H47.4619V225.299H127.322V145.375Z" stroke="white" stroke-width="0.5"/>
<path d="M525.421 -14.4731H445.561V65.451H525.421V-14.4731Z" stroke="white" stroke-width="0.5"/>
<path d="M525.421 65.8525H445.561V145.777H525.421V65.8525Z" stroke="white" stroke-width="0.5"/>
<path d="M525.421 145.375H445.561V225.299H525.421V145.375Z" stroke="white" stroke-width="0.5"/>
<path d="M604.88 -14.4731H525.02V65.451H604.88V-14.4731Z" stroke="white" stroke-width="0.5"/>
<path d="M604.88 65.8525H525.02V145.777H604.88V65.8525Z" stroke="white" stroke-width="0.5"/>
<path d="M604.88 145.375H525.02V225.299H604.88V145.375Z" stroke="white" stroke-width="0.5"/>
<path d="M207.584 -14.4731H127.724V65.451H207.584V-14.4731Z" stroke="white" stroke-width="0.5"/>
<path d="M207.584 65.8525H127.724V145.777H207.584V65.8525Z" stroke="white" stroke-width="0.5"/>
<path d="M207.584 145.375H127.724V225.299H207.584V145.375Z" stroke="white" stroke-width="0.5"/>
<path d="M287.043 -14.4731H207.183V65.451H287.043V-14.4731Z" stroke="white" stroke-width="0.5"/>
<path d="M287.043 65.8525H207.183V145.777H287.043V65.8525Z" stroke="white" stroke-width="0.5"/>
<path d="M287.043 145.375H207.183V225.299H287.043V145.375Z" stroke="white" stroke-width="0.5"/>
<path d="M366.503 -14.4731H286.643V65.451H366.503V-14.4731Z" stroke="white" stroke-width="0.5"/>
<path d="M366.503 65.8525H286.643V145.777H366.503V65.8525Z" stroke="white" stroke-width="0.5"/>
<path d="M366.503 145.375H286.643V225.299H366.503V145.375Z" stroke="white" stroke-width="0.5"/>
</g>
<g opacity="0.1">
<path d="M445.962 225.701H366.102V305.625H445.962V225.701Z" stroke="white" stroke-width="0.5"/>
<path d="M446 369V306H366V369" stroke="white" stroke-width="0.5"/>
<path d="M47.0607 225.701H-32.7998V305.625H47.0607V225.701Z" stroke="white" stroke-width="0.5"/>
<path d="M47.0607 306.027H-32.7998V385.951H47.0607V306.027Z" stroke="white" stroke-width="0.5"/>
<path d="M47.0607 386.353H-32.7998V466.277H47.0607V386.353Z" stroke="white" stroke-width="0.5"/>
<path d="M127.322 225.701H47.4619V305.625H127.322V225.701Z" stroke="white" stroke-width="0.5"/>
<path d="M127.322 306.027H47.4619V385.951H127.322V306.027Z" stroke="white" stroke-width="0.5"/>
<path d="M127.322 386.353H47.4619V466.277H127.322V386.353Z" stroke="white" stroke-width="0.5"/>
<path d="M525.421 225.701H445.561V305.625H525.421V225.701Z" stroke="white" stroke-width="0.5"/>
<path d="M525.421 367.5V306.027H445.561V367.5" stroke="white" stroke-width="0.5"/>
<path d="M604.88 225.701H525.02V305.625H604.88V225.701Z" stroke="white" stroke-width="0.5"/>
<path d="M605 367V306H525V367" stroke="white" stroke-width="0.5"/>
<path d="M207.584 225.701H127.724V305.625H207.584V225.701Z" stroke="white" stroke-width="0.5"/>
<path d="M207.584 306.027H127.724V385.951H207.584V306.027Z" stroke="white" stroke-width="0.5"/>
<path d="M207.584 386.353H127.724V466.277H207.584V386.353Z" stroke="white" stroke-width="0.5"/>
<path d="M287.043 225.701H207.183V305.625H287.043V225.701Z" stroke="white" stroke-width="0.5"/>
<path d="M287.043 306.027H207.183V385.951H287.043V306.027Z" stroke="white" stroke-width="0.5"/>
<path d="M284.5 386.353L207.183 386.353V449" stroke="white" stroke-width="0.5"/>
<path d="M366.503 225.701H286.643V305.625H366.503V225.701Z" stroke="white" stroke-width="0.5"/>
<path d="M367 354.85V306H287V369" stroke="white" stroke-width="0.5"/>
</g>
</g>
</g>
</g>
<defs>
<clipPath id="clip0_2020_895">
<rect width="580" height="457" rx="26" fill="white"/>
</clipPath>
<clipPath id="clip1_2020_895">
<rect width="730" height="450" fill="white"/>
</clipPath>
<clipPath id="clip2_2020_895">
<rect width="797" height="641" fill="white" transform="translate(-33 -95)"/>
</clipPath>
</defs>
</svg>
