<svg width="350" height="374" viewBox="0 0 350 374" fill="none" xmlns="http://www.w3.org/2000/svg">
<g clip-path="url(#clip0_2122_4)">
<path d="M335 0C343.284 5.15406e-06 350 6.71573 350 15V294C350 305.046 341.046 314 330 314H190C178.954 314 170 322.954 170 334V354C170 365.046 161.046 374 150 374H15C6.71573 374 6.44301e-08 367.284 0 359V15C6.443e-08 6.71573 6.71573 2.21464e-07 15 0H335Z" fill="#111111"/>
<path d="M15 0.5H335C343.008 0.500005 349.5 6.99188 349.5 15V294C349.5 304.77 340.77 313.5 330 313.5H190C178.678 313.5 169.5 322.678 169.5 334V354C169.5 364.77 160.77 373.5 150 373.5H15C6.99188 373.5 0.5 367.008 0.5 359V15C0.5 7.11692 6.79071 0.703272 14.626 0.504883L15 0.5Z" stroke="white" stroke-opacity="0.4"/>
<g opacity="0.7" clip-path="url(#clip1_2122_4)">
<g opacity="0.1">
<path d="M222.09 -18.8713H170.887V32.3749H222.09V-18.8713Z" stroke="white" stroke-width="0.5"/>
<path d="M222.09 32.6323H170.887V83.8786H222.09V32.6323Z" stroke="white" stroke-width="0.5"/>
<path d="M222.09 84.1362H170.887V135.382H222.09V84.1362Z" stroke="white" stroke-width="0.5"/>
<path d="M222.09 135.125H170.887V186.371H222.09V135.125Z" stroke="white" stroke-width="0.5"/>
<path d="M17.7928 -18.8713H-33.4102V32.3749H17.7928V-18.8713Z" stroke="white" stroke-width="0.5"/>
<path d="M17.7928 32.6323H-33.4102V83.8786H17.7928V32.6323Z" stroke="white" stroke-width="0.5"/>
<path d="M17.7928 84.1362H-33.4102V135.382H17.7928V84.1362Z" stroke="white" stroke-width="0.5"/>
<path d="M17.7928 135.125H-33.4102V186.371H17.7928V135.125Z" stroke="white" stroke-width="0.5"/>
<path d="M273.035 -18.8713H221.832V32.3749H273.035V-18.8713Z" stroke="white" stroke-width="0.5"/>
<path d="M273.035 32.6323H221.832V83.8786H273.035V32.6323Z" stroke="white" stroke-width="0.5"/>
<path d="M273.035 84.1362H221.832V135.382H273.035V84.1362Z" stroke="white" stroke-width="0.5"/>
<path d="M273.035 135.125H221.832V186.371H273.035V135.125Z" stroke="white" stroke-width="0.5"/>
<path d="M323.98 -18.8713H272.777V32.3749H323.98V-18.8713Z" stroke="white" stroke-width="0.5"/>
<path d="M323.98 32.6323H272.777V83.8786H323.98V32.6323Z" stroke="white" stroke-width="0.5"/>
<path d="M323.98 84.1362H272.777V135.382H323.98V84.1362Z" stroke="white" stroke-width="0.5"/>
<path d="M323.98 135.125H272.777V186.371H323.98V135.125Z" stroke="white" stroke-width="0.5"/>
<path d="M69.2518 -18.8713H18.0488V32.3749H69.2518V-18.8713Z" stroke="white" stroke-width="0.5"/>
<path d="M69.2518 32.6323H18.0488V83.8786H69.2518V32.6323Z" stroke="white" stroke-width="0.5"/>
<path d="M69.2518 84.1362H18.0488V135.382H69.2518V84.1362Z" stroke="white" stroke-width="0.5"/>
<path d="M69.2518 135.125H18.0488V186.371H69.2518V135.125Z" stroke="white" stroke-width="0.5"/>
<path d="M374.926 -18.8713H323.723V32.3749H374.926V-18.8713Z" stroke="white" stroke-width="0.5"/>
<path d="M374.926 32.6323H323.723V83.8786H374.926V32.6323Z" stroke="white" stroke-width="0.5"/>
<path d="M374.926 84.1362H323.723V135.382H374.926V84.1362Z" stroke="white" stroke-width="0.5"/>
<path d="M374.926 135.125H323.723V186.371H374.926V135.125Z" stroke="white" stroke-width="0.5"/>
<path d="M120.197 -18.8713H68.9941V32.3749H120.197V-18.8713Z" stroke="white" stroke-width="0.5"/>
<path d="M120.197 32.6323H68.9941V83.8786H120.197V32.6323Z" stroke="white" stroke-width="0.5"/>
<path d="M120.197 84.1362H68.9941V135.382H120.197V84.1362Z" stroke="white" stroke-width="0.5"/>
<path d="M120.197 135.125H68.9941V186.371H120.197V135.125Z" stroke="white" stroke-width="0.5"/>
<path d="M171.144 -18.8713H119.941V32.3749H171.144V-18.8713Z" stroke="white" stroke-width="0.5"/>
<path d="M171.144 32.6323H119.941V83.8786H171.144V32.6323Z" stroke="white" stroke-width="0.5"/>
<path d="M171.144 84.1362H119.941V135.382H171.144V84.1362Z" stroke="white" stroke-width="0.5"/>
<path d="M171.144 135.125H119.941V186.371H171.144V135.125Z" stroke="white" stroke-width="0.5"/>
</g>
<g opacity="0.1">
<path d="M222.09 186.629H170.887V237.875H222.09V186.629Z" stroke="white" stroke-width="0.5"/>
<path d="M222.09 238.132H170.887V289.379H222.09V238.132Z" stroke="white" stroke-width="0.5"/>
<path d="M222.09 312V289.636H170.887V324" stroke="white" stroke-width="0.5"/>
<path d="M17.7928 186.629H-33.4102V237.875H17.7928V186.629Z" stroke="white" stroke-width="0.5"/>
<path d="M17.7928 238.132H-33.4102V289.379H17.7928V238.132Z" stroke="white" stroke-width="0.5"/>
<path d="M17.7928 289.636H-33.4102V340.882H17.7928V289.636Z" stroke="white" stroke-width="0.5"/>
<path d="M17.7928 340.625H-33.4102V391.871H17.7928V340.625Z" stroke="white" stroke-width="0.5"/>
<path d="M273.035 186.629H221.832V237.875H273.035V186.629Z" stroke="white" stroke-width="0.5"/>
<path d="M273.035 238.132H221.832V289.379H273.035V238.132Z" stroke="white" stroke-width="0.5"/>
<path d="M273.035 312.5V289.636H221.832V312.5" stroke="white" stroke-width="0.5"/>
<path d="M323.98 186.629H272.777V237.875H323.98V186.629Z" stroke="white" stroke-width="0.5"/>
<path d="M323.98 238.132H272.777V289.379H323.98V238.132Z" stroke="white" stroke-width="0.5"/>
<path d="M323.98 312.5V289.636H272.777V312.5" stroke="white" stroke-width="0.5"/>
<path d="M69.2518 186.629H18.0488V237.875H69.2518V186.629Z" stroke="white" stroke-width="0.5"/>
<path d="M69.2518 238.132H18.0488V289.379H69.2518V238.132Z" stroke="white" stroke-width="0.5"/>
<path d="M69.2518 289.636H18.0488V340.882H69.2518V289.636Z" stroke="white" stroke-width="0.5"/>
<path d="M69.2518 340.625H18.0488V391.871H69.2518V340.625Z" stroke="white" stroke-width="0.5"/>
<path d="M374.926 186.629H323.723V237.875H374.926V186.629Z" stroke="white" stroke-width="0.5"/>
<path d="M374.926 238.132H323.723V289.379H374.926V238.132Z" stroke="white" stroke-width="0.5"/>
<path d="M349.5 289.636H323.723V312.5" stroke="white" stroke-width="0.5"/>
<path d="M120.197 186.629H68.9941V237.875H120.197V186.629Z" stroke="white" stroke-width="0.5"/>
<path d="M120.197 238.132H68.9941V289.379H120.197V238.132Z" stroke="white" stroke-width="0.5"/>
<path d="M120.197 289.636H68.9941V340.882H120.197V289.636Z" stroke="white" stroke-width="0.5"/>
<path d="M120.197 340.625H68.9941V391.871H120.197V340.625Z" stroke="white" stroke-width="0.5"/>
<path d="M171.144 186.629H119.941V237.875H171.144V186.629Z" stroke="white" stroke-width="0.5"/>
<path d="M171.144 238.132H119.941V289.379H171.144V238.132Z" stroke="white" stroke-width="0.5"/>
<path d="M168.5 340.882L119.941 340.882V289.636H171.144V324.5" stroke="white" stroke-width="0.5"/>
<path d="M168 340.625H119.941V372" stroke="white" stroke-width="0.5"/>
</g>
</g>
</g>
<defs>
<clipPath id="clip0_2122_4">
<rect width="350" height="374" fill="white"/>
</clipPath>
<clipPath id="clip1_2122_4">
<rect width="511" height="411" fill="white" transform="translate(-85 -19)"/>
</clipPath>
</defs>
</svg>
