<svg width="935" height="450" viewBox="0 0 935 450" fill="none" xmlns="http://www.w3.org/2000/svg">
<g clip-path="url(#clip0_2020_424)">
<path d="M896.575 0C917.797 8.69751e-06 935 13.4315 935 30V330C935 352.091 917.091 370 895 370H673V370C652.289 370 635.5 386.789 635.5 407.5V410C635.5 432.091 617.591 450 595.5 450H38.4247C17.2034 450 1.08312e-06 436.569 0 420V30C0 13.4315 17.2034 0 38.4247 0H896.575Z" fill="#111111"/>
<path d="M38.4248 0.5H896.575C917.643 0.500009 934.5 13.8158 934.5 30V330C934.5 351.815 916.815 369.5 895 369.5H673C652.013 369.5 635 386.513 635 407.5V410C635 431.815 617.315 449.5 595.5 449.5H38.4248C17.3574 449.5 0.500001 436.185 0.5 420V30C0.5 13.8158 17.3574 0.5 38.4248 0.5Z" stroke="white" stroke-opacity="0.6"/>
<g opacity="0.3" clip-path="url(#clip1_2020_424)">
<g opacity="0.1">
<path d="M548.962 -14.4731H469.102V65.451H548.962V-14.4731Z" stroke="white" stroke-width="0.5"/>
<path d="M548.962 65.8525H469.102V145.777H548.962V65.8525Z" stroke="white" stroke-width="0.5"/>
<path d="M548.962 145.375H469.102V225.299H548.962V145.375Z" stroke="white" stroke-width="0.5"/>
<path d="M150.061 -14.4731H70.2002V65.451H150.061V-14.4731Z" stroke="white" stroke-width="0.5"/>
<path d="M150.061 65.8525H70.2002V145.777H150.061V65.8525Z" stroke="white" stroke-width="0.5"/>
<path d="M150.061 145.375H70.2002V225.299H150.061V145.375Z" stroke="white" stroke-width="0.5"/>
<path d="M230.322 -14.4731H150.462V65.451H230.322V-14.4731Z" stroke="white" stroke-width="0.5"/>
<path d="M230.322 65.8525H150.462V145.777H230.322V65.8525Z" stroke="white" stroke-width="0.5"/>
<path d="M230.322 145.375H150.462V225.299H230.322V145.375Z" stroke="white" stroke-width="0.5"/>
<path d="M628.421 -14.4731H548.561V65.451H628.421V-14.4731Z" stroke="white" stroke-width="0.5"/>
<path d="M628.421 65.8525H548.561V145.777H628.421V65.8525Z" stroke="white" stroke-width="0.5"/>
<path d="M628.421 145.375H548.561V225.299H628.421V145.375Z" stroke="white" stroke-width="0.5"/>
<path d="M707.88 -14.4731H628.02V65.451H707.88V-14.4731Z" stroke="white" stroke-width="0.5"/>
<path d="M707.88 65.8525H628.02V145.777H707.88V65.8525Z" stroke="white" stroke-width="0.5"/>
<path d="M707.88 145.375H628.02V225.299H707.88V145.375Z" stroke="white" stroke-width="0.5"/>
<path d="M310.584 -14.4731H230.724V65.451H310.584V-14.4731Z" stroke="white" stroke-width="0.5"/>
<path d="M310.584 65.8525H230.724V145.777H310.584V65.8525Z" stroke="white" stroke-width="0.5"/>
<path d="M310.584 145.375H230.724V225.299H310.584V145.375Z" stroke="white" stroke-width="0.5"/>
<path d="M787.34 -14.4731H707.479V65.451H787.34V-14.4731Z" stroke="white" stroke-width="0.5"/>
<path d="M787.34 65.8525H707.479V145.777H787.34V65.8525Z" stroke="white" stroke-width="0.5"/>
<path d="M787.34 145.375H707.479V225.299H787.34V145.375Z" stroke="white" stroke-width="0.5"/>
<path d="M390.043 -14.4731H310.183V65.451H390.043V-14.4731Z" stroke="white" stroke-width="0.5"/>
<path d="M390.043 65.8525H310.183V145.777H390.043V65.8525Z" stroke="white" stroke-width="0.5"/>
<path d="M390.043 145.375H310.183V225.299H390.043V145.375Z" stroke="white" stroke-width="0.5"/>
<path d="M866.799 -14.4731H786.938V65.451H866.799V-14.4731Z" stroke="white" stroke-width="0.5"/>
<path d="M866.799 65.8525H786.938V145.777H866.799V65.8525Z" stroke="white" stroke-width="0.5"/>
<path d="M866.799 145.375H786.938V225.299H866.799V145.375Z" stroke="white" stroke-width="0.5"/>
<path d="M866.799 145.375H786.938V225.299H866.799V145.375Z" stroke="white" stroke-width="0.5"/>
<path d="M469.503 -14.4731H389.643V65.451H469.503V-14.4731Z" stroke="white" stroke-width="0.5"/>
<path d="M469.503 65.8525H389.643V145.777H469.503V65.8525Z" stroke="white" stroke-width="0.5"/>
<path d="M469.503 145.375H389.643V225.299H469.503V145.375Z" stroke="white" stroke-width="0.5"/>
</g>
<g opacity="0.1">
<path d="M866.799 306.027H786.938V367.5M866.799 306.027V367.5M866.799 306.027H932.5M866.799 225.5H932.5M866.799 145H932.5" stroke="white" stroke-width="0.5"/>
<path d="M548.962 225.701H469.102V305.625H548.962V225.701Z" stroke="white" stroke-width="0.5"/>
<path d="M548.962 306.027H469.102V385.951H548.962V306.027Z" stroke="white" stroke-width="0.5"/>
<path d="M548.962 386.353H469.102V466.277H548.962V386.353Z" stroke="white" stroke-width="0.5"/>
<path d="M150.061 225.701H70.2002V305.625H150.061V225.701Z" stroke="white" stroke-width="0.5"/>
<path d="M150.061 306.027H70.2002V385.951H150.061V306.027Z" stroke="white" stroke-width="0.5"/>
<path d="M150.061 386.353H70.2002V466.277H150.061V386.353Z" stroke="white" stroke-width="0.5"/>
<path d="M230.322 225.701H150.462V305.625H230.322V225.701Z" stroke="white" stroke-width="0.5"/>
<path d="M230.322 306.027H150.462V385.951H230.322V306.027Z" stroke="white" stroke-width="0.5"/>
<path d="M230.322 386.353H150.462V466.277H230.322V386.353Z" stroke="white" stroke-width="0.5"/>
<path d="M628.421 225.701H548.561V305.625H628.421V225.701Z" stroke="white" stroke-width="0.5"/>
<path d="M628.421 306.027H548.561V385.951H628.421V306.027Z" stroke="white" stroke-width="0.5"/>
<path d="M628.421 386.353H548.561V449M628.421 386.353V431M628.421 386.353H641" stroke="white" stroke-width="0.5"/>
<path d="M707.88 225.701H628.02V305.625H707.88V225.701Z" stroke="white" stroke-width="0.5"/>
<path d="M707.88 368.5V306.027H628.02V385.951" stroke="white" stroke-width="0.5"/>
<path d="M628.02 386.353V430.5" stroke="white" stroke-width="0.5"/>
<path d="M310.584 225.701H230.724V305.625H310.584V225.701Z" stroke="white" stroke-width="0.5"/>
<path d="M310.584 306.027H230.724V385.951H310.584V306.027Z" stroke="white" stroke-width="0.5"/>
<path d="M310.584 386.353H230.724V466.277H310.584V386.353Z" stroke="white" stroke-width="0.5"/>
<path d="M787.34 225.701H707.479V305.625H787.34V225.701Z" stroke="white" stroke-width="0.5"/>
<path d="M787.34 368V306.027H707.479V368" stroke="white" stroke-width="0.5"/>
<path d="M390.043 225.701H310.183V305.625H390.043V225.701Z" stroke="white" stroke-width="0.5"/>
<path d="M390.043 306.027H310.183V385.951H390.043V306.027Z" stroke="white" stroke-width="0.5"/>
<path d="M390.043 386.353H310.183V466.277H390.043V386.353Z" stroke="white" stroke-width="0.5"/>
<path d="M866.799 225.701H786.938V305.625H866.799V225.701Z" stroke="white" stroke-width="0.5"/>
<path d="M469.503 225.701H389.643V305.625H469.503V225.701Z" stroke="white" stroke-width="0.5"/>
<path d="M469.503 306.027H389.643V385.951H469.503V306.027Z" stroke="white" stroke-width="0.5"/>
<path d="M469.503 386.353H389.643V466.277H469.503V386.353Z" stroke="white" stroke-width="0.5"/>
</g>
</g>
</g>
<defs>
<clipPath id="clip0_2020_424">
<rect width="935" height="450" fill="white"/>
</clipPath>
<clipPath id="clip1_2020_424">
<rect width="797" height="641" fill="white" transform="translate(70 -95)"/>
</clipPath>
</defs>
</svg>
